<?xml version="1.0" encoding="utf-8"?>
<!-- Generator: Adobe Illustrator 16.0.0, SVG Export Plug-In . SVG Version: 6.00 Build 0)  -->
<!DOCTYPE svg PUBLIC "-//W3C//DTD SVG 1.1//EN" "http://www.w3.org/Graphics/SVG/1.1/DTD/svg11.dtd">
<svg version="1.1" id="Layer_1" xmlns="http://www.w3.org/2000/svg" xmlns:xlink="http://www.w3.org/1999/xlink" x="0px" y="0px"
	 width="657.288px" height="132.722px" viewBox="0 0 657.288 132.722" enable-background="new 0 0 657.288 132.722"
	 xml:space="preserve">
<g>
	<path fill="#00BBE3" d="M2241.59,117.67l-0.028-0.049c0-0.023,0.005-0.043,0.005-0.065c0-7.308-4.01-13.617-9.907-17.037
		l-0.042-0.069l-77.308-44.636l-0.187-0.002c-2.902-1.669-6.216-2.695-9.798-2.695c-3.428,0-6.598,0.951-9.41,2.485l-0.229-0.006
		l-77.576,44.793l-0.098,0.163c-5.934,3.41-9.975,9.737-9.975,17.073c0,0.032,0.008,0.065,0.008,0.096l-0.012,0.026v89.5
		l0.012,0.023c0.033,7.219,3.971,13.46,9.772,16.884l0.036,0.057L2133,268.173c3.192,2.212,7.052,3.521,11.226,3.521
		c3.542,0,6.816-1.01,9.69-2.638l0.175,0.004l77.677-44.854l0.038-0.062c5.819-3.438,9.765-9.709,9.765-16.96
		c0-0.08-0.021-0.15-0.021-0.229l0.041-0.072V117.67z"/>
	<path fill="#24313F" d="M2212.422,135.04c-2.196-5.993-4.691-9.689-7.188-12.485c-2.5-2.796-4.195-6.493-4.696-7.592
		c-0.496-1.099-0.501-0.798-1.597-1.298c-1.1-0.5-6.593-4.495-10.391-6.792c-3.793-2.298-6.991,1.798-8.089,2.397
		c-1.099,0.599-1,1.798-0.3,3.396c0.699,1.599,2.697,2.797,3.694,3.296c0.999,0.5,2.597,3.296,5.495,2.697
		c2.895-0.6,3.395-1.499,4.295-0.2c0.898,1.298,4.195,12.386,4.195,12.486c-3.193,3.596-1.199,9.089-1.199,9.089l-3.498,0.2
		c0,0-0.496-1.099-4.293-1.099c-3.793,0-4.494,3.096-5.494,3.096s-1.599-2.697-9.589-2.697c-7.991,0-11.487,5.495-11.388,5.495
		c-4.596-3.096-8.889-4.195-8.889-4.195s0.398-5.594,0.199-5.694c1.697-0.599,1.898-4.695,1.797-4.695
		c0.6,1.199,1.1-0.399,1.199-4.594s-1.199-3.497-1.199-3.497s1.199-1.099-0.498-5.694c-2.66-6.797-10.455-7.085-10.668-7.091v-0.001
		c0,0-0.01,0-0.012,0h-0.009v0.001c-0.214,0.006-8.009,0.293-10.669,7.091c-1.697,4.595-0.498,5.694-0.498,5.694
		s-1.299-0.699-1.199,3.497s0.6,5.793,1.199,4.594c-0.102,0,0.101,4.096,1.798,4.695c-0.2,0.1,0.198,5.694,0.198,5.694
		s-4.293,1.099-8.889,4.195c0.1,0-3.396-5.495-11.387-5.495c-7.992,0-8.59,2.697-9.59,2.697s-1.699-3.096-5.494-3.096
		s-4.295,1.099-4.295,1.099l-3.497-0.2c0,0,2.138-4.769-1.198-9.089c-0.383-0.495,3.296-11.188,4.195-12.486
		c0.898-1.298,1.4-0.399,4.296,0.2c2.896,0.599,4.495-2.197,5.493-2.697c0.998-0.5,2.996-1.697,3.695-3.296
		c0.7-1.599,0.799-2.797-0.299-3.396c-1.099-0.6-4.297-4.695-8.092-2.397s-9.244,6.405-10.387,6.792
		c-0.967,0.328-1.17,0.593-1.6,1.298c-0.627,1.031-2.195,4.796-4.693,7.592s-4.994,6.492-7.192,12.485s-3.997,9.489-3.397,11.986
		c0.6,2.498,5.039,7.444,12.432,11.84c7.392,4.395,14.639,5.739,21.332,3.742c0.299-0.101,2.696,11.088,16.48,24.573
		c0,0.101,0.199,14.583,0.199,14.583h21.058h0.021h21.057c0,0,0.199-14.482,0.199-14.583c13.783-13.485,16.181-24.674,16.48-24.573
		c6.694,1.997,12.584,0.899,19.979-3.495c7.393-4.396,13.185-9.589,13.783-12.087C2216.42,144.529,2214.624,141.033,2212.422,135.04
		z"/>
	<g>
		<path fill="#FFFFFF" d="M2105.45,208.922h-1.428v-1.362h8.213c0.943,0,1.316,0.396,1.316,1.339v1.538h-1.428v-1.031
			c0-0.329-0.174-0.483-0.482-0.483h-4.654v5.797h5.599v1.36h-5.599v6.917h-1.537V208.922z"/>
		<path fill="#FFFFFF" d="M2115.073,221.636h1.449v-12.714h-1.449v-1.362h4.413v1.362h-1.472v12.714h1.472v1.36h-4.413V221.636z"/>
		<path fill="#FFFFFF" d="M2126.538,208.922h-3.82c-0.307,0-0.483,0.131-0.483,0.483v1.031h-1.405v-1.625
			c0-0.944,0.308-1.252,1.252-1.252h10.451c0.944,0,1.252,0.308,1.252,1.252v1.625h-1.427v-1.031c0-0.353-0.153-0.483-0.483-0.483
			h-3.799v14.074h-1.537V208.922z"/>
		<path fill="#FFFFFF" d="M2134.801,221.636h0.944c0.308,0,0.483-0.154,0.483-0.484V207.56h1.404l7.883,11.001
			c0.527,0.769,1.252,2.021,1.252,2.021h0.044c0,0-0.109-1.207-0.109-2.021v-9.662c0-0.943,0.396-1.339,1.339-1.339h1.625v1.362
			h-0.944c-0.308,0-0.483,0.154-0.483,0.483v13.591h-1.404l-7.883-11.001c-0.549-0.745-1.273-1.997-1.273-1.997h-0.045
			c0,0,0.133,1.186,0.133,1.997v9.662c0,0.944-0.396,1.339-1.34,1.339h-1.625V221.636z"/>
		<path fill="#FFFFFF" d="M2152.926,208.922h-1.428v-1.362h8.827c0.944,0,1.339,0.396,1.339,1.339v1.538h-1.449v-1.031
			c0-0.329-0.176-0.483-0.482-0.483h-5.27v5.621h5.796v1.36h-5.796v5.248c0,0.33,0.175,0.484,0.482,0.484h5.424
			c0.307,0,0.482-0.154,0.482-0.484v-1.032h1.428v1.538c0,0.944-0.395,1.339-1.34,1.339h-6.674c-0.945,0-1.34-0.395-1.34-1.339
			V208.922z"/>
		<path fill="#FFFFFF" d="M2164.591,219.945c0,0,1.56,1.888,3.996,1.888c1.691,0,3.053-1.098,3.053-2.744
			c0-3.82-7.62-3.052-7.62-7.838c0-2.152,1.867-3.953,4.721-3.953c1.494,0,4.172,0.637,4.172,2.657v1.098h-1.449v-0.725
			c0-0.922-1.273-1.604-2.699-1.604c-1.998,0-3.162,1.164-3.162,2.481c0,3.579,7.619,2.701,7.619,7.795
			c0,2.305-1.779,4.259-4.678,4.259c-3.162,0-4.896-2.195-4.896-2.195L2164.591,219.945z"/>
		<path fill="#FFFFFF" d="M2175.971,219.945c0,0,1.559,1.888,3.996,1.888c1.691,0,3.053-1.098,3.053-2.744
			c0-3.82-7.62-3.052-7.62-7.838c0-2.152,1.866-3.953,4.722-3.953c1.493,0,4.172,0.637,4.172,2.657v1.098h-1.449v-0.725
			c0-0.922-1.273-1.604-2.701-1.604c-1.998,0-3.162,1.164-3.162,2.481c0,3.579,7.619,2.701,7.619,7.795
			c0,2.305-1.778,4.259-4.677,4.259c-3.161,0-4.896-2.195-4.896-2.195L2175.971,219.945z"/>
		<path fill="#FFFFFF" d="M2125.991,229.55h-1.426v-1.362h6.521c2.744,0,4.764,1.801,4.764,4.656c0,2.876-2.02,4.72-4.764,4.72
			h-3.558v6.061h-1.538V229.55z M2130.888,236.204c2.042,0,3.381-1.252,3.381-3.359c0-2.087-1.339-3.294-3.359-3.294h-3.381v6.653
			H2130.888z"/>
		<path fill="#FFFFFF" d="M2138.711,229.55h-1.428v-1.362h6.543c2.592,0,4.436,1.713,4.436,4.393c0,2.393-1.471,3.798-2.986,4.127
			v0.045c0,0,0.309,0.175,0.527,0.614l2.219,4.392c0.219,0.461,0.549,0.506,1.098,0.506h0.307v1.36h-0.681
			c-1.251,0-1.624-0.153-2.13-1.164l-2.217-4.412c-0.418-0.813-0.703-0.923-1.56-0.923h-2.591v6.499h-1.537V229.55z
			 M2143.673,235.763c1.845,0,2.987-1.207,2.987-3.14c0-1.909-1.143-3.073-2.965-3.073h-3.447v6.213H2143.673z"/>
		<path fill="#FFFFFF" d="M2158.284,227.925c4.369,0,7.859,3.447,7.859,7.883c0,4.523-3.49,8.079-7.859,8.079
			c-4.393,0-7.861-3.556-7.861-8.079C2150.422,231.373,2153.891,227.925,2158.284,227.925z M2158.284,242.439
			c3.446,0,6.257-2.897,6.257-6.631c0-3.646-2.811-6.435-6.257-6.435c-3.471,0-6.26,2.789-6.26,6.435
			C2152.024,239.542,2154.813,242.439,2158.284,242.439z"/>
	</g>
</g>
<g>
	<path fill="#00BBE3" d="M1528.924,117.67l-0.028-0.049c0-0.023,0.005-0.043,0.005-0.065c0-7.308-4.01-13.617-9.907-17.037
		l-0.042-0.069l-77.308-44.636l-0.187-0.002c-2.902-1.669-6.216-2.695-9.798-2.695c-3.428,0-6.598,0.951-9.41,2.485l-0.229-0.006
		l-77.577,44.793l-0.097,0.163c-5.934,3.41-9.976,9.737-9.976,17.073c0,0.032,0.009,0.065,0.009,0.096l-0.013,0.026v89.5
		l0.013,0.023c0.033,7.219,3.97,13.46,9.772,16.884l0.036,0.057l76.147,43.963c3.192,2.212,7.052,3.521,11.226,3.521
		c3.542,0,6.816-1.01,9.69-2.638l0.175,0.004l77.677-44.854l0.038-0.062c5.819-3.438,9.765-9.709,9.765-16.96
		c0-0.08-0.021-0.15-0.021-0.229l0.041-0.072V117.67z"/>
	<g>
		<path fill="#24313F" d="M1442.265,119.949c3.602-7.685-5.139-16.78-13.024-14.289c-7.617,1.536-10.833,12.041-5.523,17.666
			C1428.542,129.705,1440.001,127.681,1442.265,119.949z"/>
		<path fill="#24313F" d="M1430.222,183.665c0.711,0,2.135,0,2.847,0c0.03,6.064,0.019,12.133,0.004,18.202h12.212
			c-0.005-18.099-0.05-36.202,0.039-54.301c0.011,0,0.026,0,0.038,0c-0.004-0.045-0.014-0.089-0.014-0.135
			c0-0.932,0.756-1.688,1.688-1.688s1.688,0.756,1.688,1.688c0,0.028-0.007,0.054-0.008,0.081c0.003,0,0.008,0,0.011,0
			c0.029,10.119-0.042,20.238,0.015,30.375c-0.114,2.988,2.164,6.676,5.58,5.835c2.904,0.114,3.857-3.485,3.757-5.835
			c0.1-10.434-0.028-20.867,0.043-31.288c-0.057-4.754-0.214-10.394-4.286-13.609c-5.352-4.514-12.867-3.53-19.359-3.644
			c-7.531,0.312-15.403-1.054-22.589,1.793c-4.513,1.766-6.805,6.703-6.664,11.344c-0.057,12.199-0.099,24.413,0.016,36.613
			c-0.201,2.107,1.337,4.84,3.714,4.625c4.043,0.94,5.609-4,5.609-7.158c0.085-9.625-0.257-29.071-0.257-29.113c0,0,0.001,0,0.001,0
			c0-0.007-0.002-0.013-0.002-0.02c0-0.932,0.756-1.688,1.688-1.688c0.881,0,1.597,0.679,1.673,1.542c0.004,0,0.011,0,0.015,0
			c0.124,18.098-0.073,36.361-0.18,54.583h12.715C1430.221,195.8,1430.228,189.734,1430.222,183.665z"/>
	</g>
	<g>
		<path fill="#FFFFFF" d="M1407.495,221.724h0.812c0.308,0,0.461-0.154,0.483-0.484l1.076-13.592h1.559l4.084,8.98
			c0.373,0.79,0.768,1.823,0.768,1.823h0.044c0,0,0.396-1.033,0.747-1.823l4.083-8.98h1.559l1.077,13.592
			c0.021,0.33,0.175,0.484,0.482,0.484h0.835v1.36h-1.494c-0.944,0-1.273-0.396-1.339-1.339l-0.725-9.376
			c-0.065-0.835-0.065-2.152-0.065-2.152h-0.044c0,0-0.417,1.362-0.791,2.152l-3.667,7.838h-1.383l-3.645-7.838
			c-0.352-0.769-0.812-2.195-0.812-2.195h-0.044c0,0,0,1.36-0.066,2.195l-0.725,9.376c-0.065,0.943-0.396,1.339-1.339,1.339h-1.471
			V221.724z"/>
		<path fill="#FFFFFF" d="M1425.839,221.724h0.285c0.395,0,0.637-0.066,0.791-0.484l5.051-13.592h1.646l5.05,13.592
			c0.154,0.418,0.374,0.484,0.791,0.484h0.263v1.36h-0.703c-1.098,0-1.427-0.22-1.822-1.273l-1.34-3.646h-6.126l-1.362,3.646
			c-0.395,1.054-0.703,1.273-1.8,1.273h-0.724V221.724z M1435.435,216.827l-2.042-5.512c-0.263-0.725-0.593-1.997-0.593-1.997
			h-0.044c0,0-0.329,1.272-0.593,1.997l-2.02,5.512H1435.435z"/>
		<path fill="#FFFFFF" d="M1440.931,221.724h0.944c0.308,0,0.482-0.154,0.482-0.484v-13.592h1.405l7.883,11.001
			c0.527,0.769,1.251,2.021,1.251,2.021h0.044c0,0-0.11-1.207-0.11-2.021v-9.662c0-0.944,0.396-1.339,1.34-1.339h1.625v1.362h-0.944
			c-0.308,0-0.483,0.153-0.483,0.482v13.592h-1.405l-7.883-11.001c-0.549-0.745-1.274-1.997-1.274-1.997h-0.044
			c0,0,0.132,1.186,0.132,1.997v9.662c0,0.943-0.396,1.339-1.34,1.339h-1.625V221.724z"/>
	</g>
</g>
<g>
	<path fill="#00BBE3" d="M1885.256,117.67l-0.027-0.049c0-0.023,0.004-0.043,0.004-0.065c0-7.308-4.01-13.617-9.906-17.037
		l-0.042-0.069l-77.308-44.636l-0.187-0.002c-2.902-1.669-6.216-2.695-9.798-2.695c-3.428,0-6.598,0.951-9.41,2.485l-0.229-0.006
		l-77.577,44.793l-0.097,0.163c-5.934,3.41-9.976,9.737-9.976,17.073c0,0.032,0.009,0.065,0.009,0.096l-0.013,0.026v89.5
		l0.013,0.023c0.033,7.219,3.97,13.46,9.772,16.884l0.035,0.057l76.147,43.963c3.192,2.212,7.052,3.521,11.226,3.521
		c3.542,0,6.816-1.01,9.69-2.638l0.175,0.004l77.677-44.854l0.038-0.062c5.818-3.438,9.764-9.709,9.764-16.96
		c0-0.08-0.021-0.15-0.021-0.229l0.041-0.072V117.67z"/>
	<g>
		<path fill="#24313F" d="M1798.833,118.365c1.539-7.374-5.964-14.115-13.101-12.593c-7.445,1.595-11.847,11.282-6.698,17.4
			C1784.21,130.747,1798.186,127.882,1798.833,118.365z"/>
		<path fill="#24313F" d="M1787.017,197.56c0.76-0.026,2.284-0.068,3.044-0.082c0.029,1.463,0.031,2.926,0.048,4.389h10.178
			c0.02-1.449,0.046-2.898,0.086-4.348c4.342,0.059,8.684,0.027,13.028,0c-4.751-17.541-10.617-34.801-14.749-52.501
			c1.071,1.017,2.367,1.948,2.75,3.47c3.044,8.897,5.288,18.065,8.532,26.879c1.409,3.174,5.019,3.313,7.91,2.311
			c1.495-6.61-1.892-12.817-3.44-19.091c-2.609-7.292-3.627-15.259-7.66-21.971c-3.299-5.219-10.081-5.981-15.707-5.587
			c-6.813,0.411-14.948-1.605-20.42,3.639c-4.696,5.344-5.303,12.818-7.531,19.321c-1.749,6.906-4.724,13.635-5.345,20.743
			c0.071,4.609,7.616,4.864,8.63,0.662c3.173-9.251,5.147-18.91,8.377-28.148c0.492-0.323,1.48-0.973,1.976-1.297
			c-4.062,17.232-8.857,34.31-12.988,51.543c4.356,0.068,8.728,0.086,13.101,0.055c0.017,1.439,0.014,2.88,0.021,4.32h10.106
			C1786.974,200.431,1786.989,198.996,1787.017,197.56z"/>
	</g>
	<g>
		<path fill="#FFFFFF" d="M1745.889,209.493c-0.109-0.416-0.395-0.482-0.812-0.482h-0.263v-1.362h0.681
			c1.098,0,1.603,0.198,1.866,1.274l2.678,10.648c0.199,0.791,0.33,1.647,0.33,1.647h0.044c0,0,0.197-0.856,0.418-1.647
			l3.403-11.856h1.515l3.096,11.856c0.22,0.791,0.352,1.647,0.352,1.647h0.044c0,0,0.153-0.856,0.351-1.647l2.68-10.648
			c0.263-1.076,0.768-1.274,1.866-1.274h0.681v1.362h-0.242c-0.438,0-0.702,0.066-0.812,0.482l-3.557,13.592h-1.822l-2.877-10.738
			c-0.263-0.986-0.504-2.283-0.504-2.283h-0.045c0,0-0.263,1.275-0.549,2.262l-3.162,10.76h-1.821L1745.889,209.493z"/>
		<path fill="#FFFFFF" d="M1773.676,207.385c4.37,0,7.86,3.446,7.86,7.883c0,4.523-3.49,8.079-7.86,8.079
			c-4.392,0-7.861-3.556-7.861-8.079C1765.815,210.832,1769.285,207.385,1773.676,207.385z M1773.676,221.899
			c3.447,0,6.258-2.898,6.258-6.631c0-3.646-2.811-6.435-6.258-6.435c-3.469,0-6.258,2.789-6.258,6.435
			C1767.418,219,1770.208,221.899,1773.676,221.899z"/>
		<path fill="#FFFFFF" d="M1782.841,221.724h0.812c0.308,0,0.461-0.154,0.483-0.484l1.075-13.592h1.56l4.084,8.98
			c0.373,0.79,0.769,1.823,0.769,1.823h0.043c0,0,0.396-1.033,0.748-1.823l4.083-8.98h1.56l1.076,13.592
			c0.021,0.33,0.175,0.484,0.482,0.484h0.835v1.36h-1.494c-0.943,0-1.272-0.396-1.339-1.339l-0.725-9.376
			c-0.065-0.835-0.065-2.152-0.065-2.152h-0.044c0,0-0.417,1.362-0.791,2.152l-3.667,7.838h-1.383l-3.645-7.838
			c-0.352-0.769-0.812-2.195-0.812-2.195h-0.044c0,0,0,1.36-0.066,2.195l-0.725,9.376c-0.065,0.943-0.396,1.339-1.339,1.339h-1.472
			V221.724z"/>
		<path fill="#FFFFFF" d="M1801.186,221.724h0.285c0.395,0,0.636-0.066,0.79-0.484l5.051-13.592h1.646l5.05,13.592
			c0.154,0.418,0.374,0.484,0.791,0.484h0.263v1.36h-0.702c-1.098,0-1.427-0.22-1.822-1.273l-1.34-3.646h-6.126l-1.361,3.646
			c-0.396,1.054-0.703,1.273-1.801,1.273h-0.724V221.724z M1810.782,216.827l-2.043-5.512c-0.263-0.725-0.593-1.997-0.593-1.997
			h-0.044c0,0-0.329,1.272-0.593,1.997l-2.021,5.512H1810.782z"/>
		<path fill="#FFFFFF" d="M1816.278,221.724h0.944c0.308,0,0.482-0.154,0.482-0.484v-13.592h1.405l7.883,11.001
			c0.527,0.769,1.252,2.021,1.252,2.021h0.044c0,0-0.11-1.207-0.11-2.021v-9.662c0-0.944,0.396-1.339,1.34-1.339h1.625v1.362h-0.944
			c-0.308,0-0.483,0.153-0.483,0.482v13.592h-1.404l-7.883-11.001c-0.549-0.745-1.274-1.997-1.274-1.997h-0.044
			c0,0,0.133,1.186,0.133,1.997v9.662c0,0.943-0.396,1.339-1.34,1.339h-1.625V221.724z"/>
	</g>
</g>
<g>
	<path fill="#00BBE3" d="M1309.552-212.007c9.151,0,24.065,3.934,24.065,13.636v5.306h-6.04v-3.569
		c0-6.04-10.433-9.333-17.843-9.333c-14.277,0-25.261,11.166-25.261,26.721c0,15.377,10.891,27.731,25.533,27.731
		c13.271,0,21.051-9.061,21.051-9.061l3.659,4.668c0,0-8.875,10.432-24.799,10.432c-18.853,0-32.124-15.007-32.124-33.771
		C1277.793-197.823,1291.43-212.007,1309.552-212.007z"/>
	<path fill="#00BBE3" d="M1345.548-203.497c0-1.282-0.73-2.012-2.012-2.012h-3.845v-5.398h6.498c3.935,0,5.581,1.646,5.581,5.398
		v19.494c0,2.105-0.183,3.752-0.183,3.752h0.183c1.74-4.393,7.873-11.442,18.212-11.442c11.442,0,15.47,6.498,15.47,17.847v21.871
		c0,1.375,0.73,2.016,2.012,2.016h3.845v5.398h-6.498c-3.938,0-5.585-1.646-5.585-5.581v-22.057c0-7.228-1.1-13.636-10.067-13.636
		c-7.776,0-14.549,5.398-16.654,13.089c-0.548,1.829-0.734,3.934-0.734,6.129v22.057h-6.222V-203.497z"/>
	<path fill="#00BBE3" d="M1425.105-174.942h2.56v-0.552c0-9.609-3.477-12.996-11.897-12.996c-2.288,0-8.968,0.641-8.968,4.028v2.928
		h-5.947v-4.393c0-6.405,10.98-7.779,15.008-7.779c14.549,0,18.029,7.779,18.029,17.664v22.053c0,1.375,0.73,2.016,2.012,2.016
		h3.845v5.398h-6.315c-3.935,0-5.492-1.74-5.492-5.492c0-2.012,0.093-3.387,0.093-3.387h-0.183c0.089,0-3.752,9.978-15.283,9.978
		c-7.69,0-15.648-4.486-15.648-13.636C1396.919-174.395,1417.143-174.942,1425.105-174.942z M1413.574-150.784
		c8.786,0,14.091-9.151,14.091-17.113v-2.105h-2.653c-7.229,0-21.688,0.183-21.688,10.525
		C1403.324-155.177,1406.711-150.784,1413.574-150.784z"/>
	<path fill="#00BBE3" d="M1449.658-185.192c0-1.282-0.734-2.016-2.012-2.016h-3.845v-5.398h6.405c3.845,0,5.585,1.646,5.585,5.126
		v2.102c0,1.833-0.183,3.297-0.183,3.297h0.183c1.647-4.21,7.504-11.625,18.301-11.625c11.438,0,15.466,6.498,15.466,17.847v21.871
		c0,1.375,0.734,2.016,2.016,2.016h3.841v5.398h-6.498c-3.935,0-5.582-1.646-5.582-5.581v-22.057c0-7.228-1.099-13.636-9.974-13.636
		c-7.873,0-14.642,5.398-16.748,12.996c-0.551,1.922-0.734,4.027-0.734,6.222v22.057h-6.222V-185.192z"/>
	<path fill="#00BBE3" d="M1521.161-193.706c12.355,0,15.283,7.873,15.283,7.873h0.183c0,0,0-0.824,0-1.74
		c0-3.293,1.464-5.033,5.216-5.033h6.408v5.398h-3.752c-1.281,0-2.016,0.641-2.016,2.016v37.519
		c0,14.643-10.797,20.317-22.146,20.317c-5.216,0-10.526-1.371-15.008-3.659l2.381-5.216c0,0,5.67,3.201,12.444,3.201
		c8.968,0,16.106-4.21,16.106-14.46v-4.024c0-1.74,0.093-3.297,0.093-3.297h-0.186c-2.742,5.034-7.318,7.962-14.457,7.962
		c-12.354,0-20.5-9.792-20.5-23.611C1501.212-184.279,1508.806-193.706,1521.161-193.706z M1536.354-170.46
		c0-13.45-6.408-17.571-14.553-17.571c-8.968,0-14.184,6.498-14.184,17.481c0,10.98,5.95,18.119,15.008,18.119
		C1529.946-152.431,1536.354-156.917,1536.354-170.46z"/>
	<path fill="#00BBE3" d="M1576.739-193.706c12.72,0,19.311,9.795,19.311,21.233c0,1.099-0.183,3.111-0.183,3.111h-35.328
		c0.186,11.621,8.331,18.301,17.847,18.301c8.42,0,13.819-5.67,13.819-5.67l3.022,4.665c0,0-6.681,6.591-17.117,6.591
		c-13.633,0-24.065-9.884-24.065-24.069C1554.045-184.645,1564.384-193.706,1576.739-193.706z M1589.641-174.302
		c-0.365-9.52-6.222-14.188-12.996-14.188c-7.593,0-14.273,4.944-15.831,14.188H1589.641z"/>
	<path fill="#00BBE3" d="M1635.987-132.938c4.024,0,6.77-3.294,8.51-7.504l2.746-6.315l-16.2-38.346
		c-0.73-1.646-1.553-2.105-3.2-2.105h-0.917v-5.398h2.835c4.121,0,5.403,0.917,7.049,5.033l11.804,28.737
		c0.917,2.288,1.647,4.94,1.647,4.94h0.186c0,0,0.641-2.653,1.554-4.94l11.349-28.737c1.554-4.117,2.929-5.033,7.139-5.033h2.835
		v5.398h-0.913c-1.651,0-2.563,0.458-3.205,2.105l-19.858,48.138c-2.381,5.857-7.045,9.609-13.178,9.609
		c-6.409,0-9.978-4.482-9.978-4.482l2.929-4.579C1629.12-136.324,1632.049-132.938,1635.987-132.938z"/>
	<path fill="#00BBE3" d="M1701.811-193.706c13.45,0,24.341,10.25,24.341,23.886c0,13.912-10.891,24.344-24.251,24.344
		c-13.454,0-24.345-10.432-24.345-24.344C1677.556-183.456,1688.446-193.706,1701.811-193.706z M1701.9-151.06
		c9.792,0,17.847-8.051,17.847-18.759c0-10.433-8.055-18.212-17.847-18.212c-9.885,0-17.936,7.779-17.936,18.212
		C1683.964-159.111,1692.016-151.06,1701.9-151.06z"/>
	<path fill="#00BBE3" d="M1737.624-185.192c0-1.282-0.734-2.016-2.016-2.016h-3.841v-5.398h6.498c3.934,0,5.581,1.646,5.581,5.398
		v22.24c0,7.228,1.188,13.636,10.067,13.636c10.432,0,16.93-9.244,16.93-19.218v-22.057h6.222v38.618
		c0,1.375,0.734,2.016,2.016,2.016h3.841v5.398h-6.315c-3.841,0-5.582-1.646-5.582-5.123v-2.105c0-1.833,0.183-3.297,0.183-3.297
		h-0.183c-1.829,4.486-7.869,11.625-17.936,11.625c-10.891,0-15.466-5.857-15.466-17.847V-185.192z"/>
	<path fill="#00BBE3" d="M1793.019-185.192c0-1.282-0.734-2.016-2.012-2.016h-3.845v-5.398h6.405c3.845,0,5.585,1.557,5.585,5.216
		v3.111c0,1.922-0.186,3.48-0.186,3.48h0.186c2.195-6.957,7.321-12.266,14.55-12.266c1.281,0,2.47,0.276,2.47,0.276v6.132
		c0,0-1.095-0.182-2.288-0.182c-6.498,0-11.348,5.123-13.36,11.896c-0.917,2.928-1.282,6.04-1.282,8.968v19.4h-6.222V-185.192z"/>
	<path fill="#00BBE3" d="M1850.979-203.497c0-1.282-0.73-2.012-2.014-2.012h-3.844v-5.398h6.498c3.934,0,5.584,1.646,5.584,5.581
		v51.338c0,1.375,0.73,2.016,2.012,2.016h3.846v5.398h-6.498c-3.938,0-5.584-1.646-5.584-5.581V-203.497z"/>
	<path fill="#00BBE3" d="M1873.963-185.192c0-1.282-0.734-2.016-2.016-2.016h-3.842v-5.398h6.498c3.934,0,5.58,1.646,5.58,5.581
		v33.037c0,1.375,0.734,2.016,2.014,2.016h3.844v5.398h-6.498c-3.934,0-5.58-1.646-5.58-5.581V-185.192z M1873.78-210.908h6.039
		v7.869h-6.039V-210.908z"/>
	<path fill="#00BBE3" d="M1896.575-187.391h-5.764v-5.216h5.764v-1.647c0-15.19,10.709-17.113,15.834-17.113
		c1.736,0,2.836,0.183,2.836,0.183v5.581c0,0-0.822-0.182-2.193-0.182c-3.48,0-10.25,1.281-10.25,11.531v1.647h11.713v5.216h-11.713
		v40.816h-6.227V-187.391z"/>
	<path fill="#00BBE3" d="M1940.7-193.706c12.721,0,19.311,9.795,19.311,21.233c0,1.099-0.182,3.111-0.182,3.111H1924.5
		c0.186,11.621,8.33,18.301,17.846,18.301c8.42,0,13.82-5.67,13.82-5.67l3.021,4.665c0,0-6.682,6.591-17.117,6.591
		c-13.633,0-24.064-9.884-24.064-24.069C1918.006-184.645,1928.344-193.706,1940.7-193.706z M1953.602-174.302
		c-0.365-9.52-6.223-14.188-12.996-14.188c-7.592,0-14.273,4.944-15.83,14.188H1953.602z"/>
	<path fill="#00BBE3" d="M1997.477-187.391h-5.768v-5.216h5.768v-1.647c0-15.19,10.705-17.113,15.832-17.113
		c1.74,0,2.834,0.183,2.834,0.183v5.581c0,0-0.822-0.182-2.193-0.182c-3.48,0-10.25,1.281-10.25,11.531v1.647h11.715v5.216H2003.7
		v40.816h-6.223V-187.391z"/>
	<path fill="#00BBE3" d="M2043.157-193.706c13.449,0,24.34,10.25,24.34,23.886c0,13.912-10.891,24.344-24.25,24.344
		c-13.455,0-24.346-10.432-24.346-24.344C2018.901-183.456,2029.792-193.706,2043.157-193.706z M2043.247-151.06
		c9.791,0,17.846-8.051,17.846-18.759c0-10.433-8.055-18.212-17.846-18.212c-9.885,0-17.938,7.779-17.938,18.212
		C2025.309-159.111,2033.362-151.06,2043.247-151.06z"/>
	<path fill="#00BBE3" d="M2079.151-185.192c0-1.282-0.734-2.016-2.012-2.016h-3.844v-5.398h6.404c3.844,0,5.584,1.557,5.584,5.216
		v3.111c0,1.922-0.182,3.48-0.182,3.48h0.182c2.195-6.957,7.322-12.266,14.551-12.266c1.281,0,2.469,0.276,2.469,0.276v6.132
		c0,0-1.098-0.182-2.287-0.182c-6.498,0-11.35,5.123-13.361,11.896c-0.916,2.928-1.281,6.04-1.281,8.968v19.4h-6.223V-185.192z"/>
	<path fill="#00BBE3" d="M2128.862-193.706c12.719,0,19.311,9.795,19.311,21.233c0,1.099-0.182,3.111-0.182,3.111h-35.33
		c0.188,11.621,8.332,18.301,17.848,18.301c8.42,0,13.818-5.67,13.818-5.67l3.021,4.665c0,0-6.68,6.591-17.115,6.591
		c-13.633,0-24.066-9.884-24.066-24.069C2106.167-184.645,2116.506-193.706,2128.862-193.706z M2141.764-174.302
		c-0.365-9.52-6.223-14.188-12.996-14.188c-7.594,0-14.273,4.944-15.83,14.188H2141.764z"/>
	<path fill="#00BBE3" d="M2157.991-185.103c-0.643-1.646-1.559-2.105-3.205-2.105h-0.824v-5.398h2.471
		c4.393,0,5.764,0.917,7.322,5.033l11.072,28.737c0.824,2.288,1.559,5.399,1.559,5.399h0.182c0,0,0.73-3.111,1.553-5.399
		l11.074-28.737c1.557-4.117,2.928-5.033,7.232-5.033h2.381v5.398h-0.828c-1.646,0-2.652,0.458-3.201,2.105l-15.01,38.529h-6.771
		L2157.991-185.103z"/>
	<path fill="#00BBE3" d="M2225.549-193.706c12.721,0,19.312,9.795,19.312,21.233c0,1.099-0.184,3.111-0.184,3.111h-35.328
		c0.188,11.621,8.332,18.301,17.848,18.301c8.42,0,13.818-5.67,13.818-5.67l3.021,4.665c0,0-6.68,6.591-17.115,6.591
		c-13.633,0-24.07-9.884-24.07-24.069C2202.852-184.645,2213.196-193.706,2225.549-193.706z M2238.454-174.302
		c-0.365-9.52-6.223-14.188-12.996-14.188c-7.594,0-14.273,4.944-15.832,14.188H2238.454z"/>
	<path fill="#00BBE3" d="M2257.333-185.192c0-1.282-0.734-2.016-2.014-2.016h-3.844v-5.398h6.404c3.846,0,5.584,1.557,5.584,5.216
		v3.111c0,1.922-0.186,3.48-0.186,3.48h0.186c2.195-6.957,7.322-12.266,14.551-12.266c1.281,0,2.469,0.276,2.469,0.276v6.132
		c0,0-1.094-0.182-2.287-0.182c-6.498,0-11.348,5.123-13.361,11.896c-0.916,2.928-1.281,6.04-1.281,8.968v19.4h-6.221V-185.192z"/>
	<path fill="#00BBE3" d="M2292.67-153.62h7.051v7.045h-7.051V-153.62z M2292.858-210.908h6.404l-0.275,47.497h-5.857
		L2292.858-210.908z"/>
</g>
<g>
	<g>
		<path fill="#091F21" d="M83.177,27.597l-0.012-0.021c0-0.009,0.002-0.017,0.002-0.026c0-3.125-1.715-5.822-4.236-7.284
			l-0.018-0.03L45.862,1.153h-0.079C44.542,0.438,43.125,0,41.594,0c-1.464,0-2.82,0.406-4.023,1.062L37.474,1.06L4.307,20.211
			l-0.041,0.068c-2.537,1.459-4.265,4.163-4.265,7.299c0,0.013,0.004,0.028,0.004,0.042L0,27.631v38.261l0.006,0.011
			c0.014,3.086,1.697,5.754,4.178,7.218l0.015,0.024L36.753,91.94c1.364,0.947,3.014,1.506,4.799,1.506
			c1.513,0,2.914-0.431,4.142-1.128l0.075,0.002l33.208-19.175l0.016-0.027c2.488-1.47,4.175-4.151,4.175-7.25
			c0-0.036-0.009-0.064-0.009-0.098l0.018-0.03V27.597z"/>
		<g>
			<path fill="#FFFFFF" d="M32.023,25.048H13.067v43.35h5.299V51.657h14.09c11.656,0,11.79-12.376,11.79-12.904
				C44.246,32.433,41.047,25.048,32.023,25.048z M18.366,30.099h12.113c7.626,0,8.221,6.672,8.221,8.718
				c0,1.812-0.519,7.726-7.17,7.726H18.366V30.099z"/>
			<g>
				<path fill="#00BBE3" d="M45.177,54.858v13.535h5.051V56.403c0-7.63,6.671-8.221,8.715-8.221c1.815,0,7.729,0.52,7.729,7.171
					v13.04h5.113V54.427c0-11.659-12.377-11.792-12.905-11.792C52.56,42.634,45.177,45.835,45.177,54.858z"/>
			</g>
		</g>
	</g>
	<g>
		<path fill="#00BBE3" d="M97.418,65.121l1.68-2.688c2.151,1.748,6.048,4.57,12.164,4.57c7.191,0,10.753-4.301,10.753-8.871
			c0-4.57-3.763-9.207-11.089-9.207h-2.822v-3.763h2.553c7.258,0,10.752-4.1,10.752-8.333c0-4.301-3.695-8.67-10.416-8.67
			c-5.377,0-8.67,2.554-10.551,4.503c-0.807-1.277-0.941-1.68-1.68-2.688c1.345-1.68,5.242-5.31,12.568-5.31
			c7.661-0.066,13.844,4.167,13.844,12.165c0,3.628-2.487,9.543-9.073,10.215c5.712,0.202,9.878,5.443,9.878,10.887
			c0,7.796-6.989,12.836-14.314,12.702C103.333,70.632,99.031,66.733,97.418,65.121z"/>
		<path fill="#00BBE3" d="M134.25,63.911h4.771v5.78h-4.771V63.911z"/>
		<path fill="#00BBE3" d="M145.542,47.647c0-14.65,5.981-22.984,15.793-22.984c10.147,0,16.129,8.334,16.129,22.984
			c0,14.516-5.981,22.984-16.129,22.984C151.523,70.632,145.542,62.164,145.542,47.647z M149.305,47.647
			c0,10.35,3.697,19.691,12.03,19.691c8.669,0,12.231-9.342,12.231-19.691c0-10.014-3.562-19.624-12.231-19.624
			C153.002,28.023,149.305,37.634,149.305,47.647z"/>
		<path fill="#091F21" d="M207.645,29.167v40.524h-3.897V24.395h5.443l25.739,40.323V24.395h3.898v45.296h-4.771L207.645,29.167z"/>
		<path fill="#091F21" d="M247.234,37.164h3.966v19.221c0,6.316,1.747,10.887,9.408,10.887c1.479,0,10.283-0.335,10.283-9.611
			V37.164h3.965v32.527h-3.495V65.39c-2.553,4.973-10.282,5.175-10.887,5.175c-8.065,0-13.24-3.495-13.24-14.18V37.164z"/>
		<path fill="#091F21" d="M280.37,40.322v-3.159h5.578v-8.67h3.898v8.67c2.286,0,5.443,0,7.93,0v3.159h-7.93v20.027
			c0,3.36,0,7.057,5.847,7.057c0.739,0,1.613-0.067,2.554-0.336l0.403,2.621c-1.881,0.874-3.562,0.874-4.234,0.874
			c-1.949,0.067-8.468,0.135-8.468-10.014V40.322H280.37z"/>
		<path fill="#091F21" d="M318.813,36.29v3.965h-1.814c-4.57,0-8.67,2.89-8.67,9.274v20.162h-3.964V37.164h3.562v5.041
			c2.554-4.906,6.452-5.847,9.745-5.914H318.813z"/>
		<path fill="#091F21" d="M323.654,24.395h3.966v5.779h-3.966V24.395z M323.654,37.164h3.966v32.527h-3.966V37.164z"/>
		<path fill="#091F21" d="M333.13,40.322v-3.159h5.578v-8.67h3.898v8.67c2.286,0,5.443,0,7.931,0v3.159h-7.931v20.027
			c0,3.36,0,7.057,5.847,7.057c0.74,0,1.613-0.067,2.554-0.336l0.403,2.621c-1.882,0.874-3.562,0.874-4.233,0.874
			c-1.949,0.067-8.468,0.135-8.468-10.014V40.322H333.13z"/>
		<path fill="#091F21" d="M356.789,24.395h3.965v5.779h-3.965V24.395z M356.789,37.164h3.965v32.527h-3.965V37.164z"/>
		<path fill="#091F21" d="M381.923,36.29c9.543,0,15.458,6.452,15.458,17.137c0,10.753-5.915,17.205-15.458,17.205
			s-15.457-6.452-15.457-17.205C366.466,42.742,372.38,36.29,381.923,36.29z M381.923,39.516c-7.662,0-11.559,6.855-11.559,13.912
			c0,7.057,3.897,13.979,11.559,13.979c7.46,0,11.56-6.989,11.56-13.979S389.383,39.516,381.923,39.516z"/>
		<path fill="#091F21" d="M430.719,69.691h-3.965V50.47c0-6.316-2.218-10.819-8.736-10.819c-2.756,0-10.955,1.479-10.955,10.618
			v19.422h-3.965V37.164h3.494v5.31c2.958-5.31,7.998-6.183,10.888-6.183c7.931,0,13.24,3.226,13.24,14.18V69.691z"/>
		<path fill="#091F21" d="M485.899,28.091l-1.545,3.159c-3.159-2.083-8.132-3.898-12.77-3.898c-4.906,0-9.476,1.815-10.753,6.721
			c-1.075,5.309,3.428,7.191,7.795,8.871l11.761,4.57c6.519,2.42,7.863,7.056,7.796,10.014c-0.202,8.132-7.125,12.903-15.256,12.903
			c-6.048,0-12.23-1.748-17.473-5.712c0.604-0.941,1.276-2.352,1.814-3.159c3.629,2.756,9.61,5.242,15.457,5.242
			c4.57,0,9.947-2.083,11.089-6.922c1.075-4.369-1.411-7.124-5.377-8.871l-13.709-5.107c-5.443-2.084-8.804-6.184-8.064-12.165
			c0.941-5.981,6.787-10.08,14.852-10.08C476.492,23.656,481.733,25,485.899,28.091z"/>
		<path fill="#091F21" d="M493.295,80.31c3.092,0.471,5.645,0.403,7.393-3.428l2.487-6.049l-14.92-33.669h4.167l12.567,29.167
			l12.164-29.167h4.167l-17.742,41.734c-1.882,4.301-5.981,4.907-7.662,4.907c-0.94,0-1.949-0.202-2.89-0.471L493.295,80.31z"/>
		<path fill="#091F21" d="M540.948,57.258c-2.958-1.344-6.721-2.621-10.417-4.032c-4.301-2.017-6.317-4.771-5.78-9.678
			c0.807-4.234,5.041-7.325,10.82-7.325c3.697,0,7.46,1.076,10.752,3.091l-1.545,3.024c-2.419-1.208-5.78-2.621-8.737-2.621
			c-5.04,0-7.393,2.285-7.393,5.04c0,2.89,1.949,4.503,6.049,5.915l6.922,2.621c4.502,1.814,6.384,4.905,6.384,7.661
			c0,6.115-5.31,9.677-11.425,9.677c-4.369,0-8.804-1.344-12.567-4.1l1.747-3.024c2.688,1.68,6.317,3.763,10.282,3.763
			c3.36,0,6.52-1.277,7.594-3.898C544.779,59.61,542.292,57.862,540.948,57.258z"/>
		<path fill="#091F21" d="M551.502,40.322v-3.159h5.577v-8.67h3.898v8.67c2.285,0,5.443,0,7.93,0v3.159h-7.93v20.027
			c0,3.36,0,7.057,5.847,7.057c0.74,0,1.613-0.067,2.554-0.336l0.403,2.621c-1.882,0.874-3.562,0.874-4.234,0.874
			c-1.949,0.067-8.468,0.135-8.468-10.014V40.322H551.502z"/>
		<path fill="#091F21" d="M573.48,53.427c0-9.812,6.519-17.137,15.121-17.137c8.603,0,15.122,6.25,15.122,16.667
			c0,0.604,0,1.344-0.067,1.881h-26.008c0,7.191,5.107,12.231,12.903,12.231c1.143,0,4.436,0.202,9.274-1.68l1.277,2.958
			c-2.286,1.142-6.452,2.217-11.761,2.217C580.469,70.564,573.48,64.18,573.48,53.427z M577.713,51.545h22.044
			c-0.067-8.064-5.175-11.828-11.156-11.828C582.62,39.717,577.713,45.295,577.713,51.545z"/>
		<path fill="#091F21" d="M631.818,49.328c0-4.637-2.486-9.677-8.736-9.677c-3.763,0-9.005,2.217-9.005,11.357v18.683h-3.965V37.164
			h3.562v4.906c2.621-4.906,7.124-5.78,10.484-5.78c3.091,0,7.998,1.412,10.283,6.653c2.15-4.906,6.855-6.653,10.954-6.653
			c6.25,0,11.896,2.554,11.896,12.97v20.431h-3.966V50.403c0-6.99-2.285-10.753-8.736-10.753c-1.546,0-9.005,1.21-9.005,9.61v20.431
			h-3.831L631.818,49.328z"/>
	</g>
	<g>
		<path fill="#00BBE3" d="M131.875,102.089h-6.263c-0.504,0-0.792,0.216-0.792,0.792v1.692h-2.304v-2.664
			c0-1.548,0.504-2.052,2.052-2.052h17.134c1.548,0,2.052,0.504,2.052,2.052v2.664h-2.34v-1.692c0-0.576-0.252-0.792-0.792-0.792
			h-6.227v23.073h-2.52V102.089z"/>
		<path fill="#00BBE3" d="M147.319,102.773c0-0.504-0.288-0.792-0.792-0.792h-1.512v-2.124h2.556c1.548,0,2.196,0.648,2.196,2.124
			v7.667c0,0.828-0.072,1.476-0.072,1.476h0.072c0.684-1.728,3.096-4.5,7.163-4.5c4.5,0,6.083,2.556,6.083,7.019v8.603
			c0,0.54,0.288,0.792,0.792,0.792h1.512v2.124h-2.556c-1.548,0-2.196-0.648-2.196-2.196v-8.675c0-2.844-0.432-5.363-3.959-5.363
			c-3.06,0-5.723,2.124-6.551,5.147c-0.216,0.72-0.288,1.548-0.288,2.412v8.675h-2.448V102.773z"/>
		<path fill="#00BBE3" d="M176.442,106.625c5.003,0,7.595,3.852,7.595,8.351c0,0.432-0.072,1.224-0.072,1.224h-13.894
			c0.072,4.571,3.275,7.199,7.019,7.199c3.312,0,5.435-2.232,5.435-2.232l1.188,1.836c0,0-2.627,2.592-6.731,2.592
			c-5.363,0-9.467-3.888-9.467-9.467C167.515,110.188,171.583,106.625,176.442,106.625z M181.517,114.256
			c-0.144-3.744-2.448-5.579-5.111-5.579c-2.987,0-5.615,1.944-6.227,5.579H181.517z"/>
		<path fill="#00BBE3" d="M198.042,120.735c0,0,2.016,2.735,5.579,2.735c2.016,0,3.815-0.972,3.815-2.879
			c0-3.959-10.15-3.24-10.15-9.071c0-3.276,2.808-4.896,6.443-4.896c1.836,0,5.507,0.72,5.507,3.275v1.548h-2.304v-0.864
			c0-1.332-1.943-1.836-3.131-1.836c-2.52,0-4.032,0.864-4.032,2.628c0,4.067,10.151,3.131,10.151,9.143
			c0,3.024-2.736,5.076-6.335,5.076c-4.716,0-6.947-3.168-6.947-3.168L198.042,120.735z"/>
		<path fill="#00BBE3" d="M215.573,130.526c1.583,0,2.664-1.296,3.348-2.952l1.08-2.483l-6.371-15.083
			c-0.288-0.648-0.612-0.828-1.26-0.828h-0.36v-2.124h1.116c1.62,0,2.124,0.36,2.771,1.98l4.644,11.303
			c0.36,0.9,0.648,1.944,0.648,1.944h0.072c0,0,0.252-1.044,0.612-1.944l4.464-11.303c0.612-1.62,1.152-1.98,2.808-1.98h1.116v2.124
			h-0.36c-0.648,0-1.008,0.18-1.26,0.828l-7.811,18.934c-0.936,2.304-2.772,3.779-5.184,3.779c-2.52,0-3.923-1.764-3.923-1.764
			l1.152-1.8C212.874,129.194,214.025,130.526,215.573,130.526z"/>
		<path fill="#00BBE3" d="M233.285,120.735c0,0,2.016,2.735,5.579,2.735c2.016,0,3.815-0.972,3.815-2.879
			c0-3.959-10.15-3.24-10.15-9.071c0-3.276,2.808-4.896,6.443-4.896c1.836,0,5.507,0.72,5.507,3.275v1.548h-2.304v-0.864
			c0-1.332-1.943-1.836-3.131-1.836c-2.52,0-4.032,0.864-4.032,2.628c0,4.067,10.151,3.131,10.151,9.143
			c0,3.024-2.736,5.076-6.335,5.076c-4.716,0-6.947-3.168-6.947-3.168L233.285,120.735z"/>
		<path fill="#00BBE3" d="M250.024,109.108h-2.376v-2.052h2.412v-5.003h2.412v5.003h4.535v2.052h-4.535v9.215
			c0,4.248,2.7,4.788,4.067,4.788c0.504,0,0.828-0.072,0.828-0.072v2.195c0,0-0.432,0.072-1.043,0.072
			c-2.088,0-6.299-0.684-6.299-6.731V109.108z"/>
		<path fill="#00BBE3" d="M268.743,106.625c5.003,0,7.595,3.852,7.595,8.351c0,0.432-0.072,1.224-0.072,1.224h-13.894
			c0.072,4.571,3.275,7.199,7.019,7.199c3.312,0,5.435-2.232,5.435-2.232l1.188,1.836c0,0-2.627,2.592-6.731,2.592
			c-5.363,0-9.467-3.888-9.467-9.467C259.816,110.188,263.883,106.625,268.743,106.625z M273.818,114.256
			c-0.144-3.744-2.448-5.579-5.111-5.579c-2.987,0-5.615,1.944-6.227,5.579H273.818z"/>
		<path fill="#00BBE3" d="M281.235,109.973c0-0.504-0.288-0.792-0.792-0.792h-1.512v-2.124h2.52c1.512,0,2.196,0.648,2.196,2.016
			v0.828c0,0.72-0.072,1.296-0.072,1.296h0.072c0.9-2.448,3.743-4.571,6.551-4.571c3.347,0,5.075,1.548,5.615,4.535h0.072
			c0.972-2.447,3.6-4.535,6.659-4.535c4.392,0,6.011,2.556,6.011,7.019v8.603c0,0.54,0.288,0.792,0.792,0.792h1.512v2.124h-2.556
			c-1.548,0-2.196-0.648-2.196-2.196v-8.711c0-2.952-0.612-5.399-3.923-5.399c-2.736,0-5.003,2.448-5.723,5.111
			c-0.252,0.792-0.324,1.656-0.324,2.628v8.567h-2.448v-10.907c0-2.735-0.396-5.399-3.815-5.399c-2.952,0-5.147,2.556-5.903,5.328
			c-0.216,0.756-0.288,1.583-0.288,2.412v8.567h-2.447V109.973z"/>
		<path fill="#00BBE3" d="M324.759,109.108h-2.376v-2.052h2.412v-5.003h2.412v5.003h4.535v2.052h-4.535v9.215
			c0,4.248,2.7,4.788,4.067,4.788c0.504,0,0.828-0.072,0.828-0.072v2.195c0,0-0.432,0.072-1.043,0.072
			c-2.088,0-6.299-0.684-6.299-6.731V109.108z"/>
		<path fill="#00BBE3" d="M336.243,102.773c0-0.504-0.288-0.792-0.792-0.792h-1.512v-2.124h2.556c1.548,0,2.196,0.648,2.196,2.124
			v7.667c0,0.828-0.072,1.476-0.072,1.476h0.072c0.684-1.728,3.096-4.5,7.163-4.5c4.5,0,6.083,2.556,6.083,7.019v8.603
			c0,0.54,0.288,0.792,0.792,0.792h1.512v2.124h-2.556c-1.548,0-2.196-0.648-2.196-2.196v-8.675c0-2.844-0.432-5.363-3.959-5.363
			c-3.06,0-5.723,2.124-6.551,5.147c-0.216,0.72-0.288,1.548-0.288,2.412v8.675h-2.448V102.773z"/>
		<path fill="#00BBE3" d="M365.366,106.625c5.003,0,7.595,3.852,7.595,8.351c0,0.432-0.072,1.224-0.072,1.224h-13.894
			c0.072,4.571,3.275,7.199,7.019,7.199c3.312,0,5.435-2.232,5.435-2.232l1.188,1.836c0,0-2.627,2.592-6.731,2.592
			c-5.363,0-9.467-3.888-9.467-9.467C356.439,110.188,360.506,106.625,365.366,106.625z M370.441,114.256
			c-0.144-3.744-2.448-5.579-5.111-5.579c-2.987,0-5.615,1.944-6.227,5.579H370.441z"/>
		<path fill="#00BBE3" d="M394.885,106.625c5.003,0,7.595,3.852,7.595,8.351c0,0.432-0.072,1.224-0.072,1.224h-13.894
			c0.072,4.571,3.275,7.199,7.019,7.199c3.312,0,5.435-2.232,5.435-2.232l1.188,1.836c0,0-2.627,2.592-6.731,2.592
			c-5.363,0-9.467-3.888-9.467-9.467C385.958,110.188,390.025,106.625,394.885,106.625z M399.96,114.256
			c-0.144-3.744-2.448-5.579-5.111-5.579c-2.987,0-5.615,1.944-6.227,5.579H399.96z"/>
		<path fill="#00BBE3" d="M411.229,115.732l-3.923-5.795c-0.432-0.612-0.936-0.756-1.656-0.756h-0.756v-2.124h1.332
			c1.835,0,2.304,0.288,3.383,1.98l2.592,4.032c0.288,0.468,0.612,1.08,0.612,1.08h0.072c0,0,0.324-0.612,0.576-1.08l2.627-4.032
			c1.08-1.656,1.512-1.98,3.384-1.98h1.296v2.124h-0.72c-0.756,0-1.296,0.108-1.692,0.72l-3.924,5.832l6.335,9.431h-2.88
			l-4.427-6.731c-0.288-0.468-0.576-1.008-0.576-1.008h-0.072c0,0-0.288,0.504-0.612,1.008l-4.428,6.731h-2.843L411.229,115.732z"/>
		<path fill="#00BBE3" d="M424.549,109.973c0-0.504-0.288-0.792-0.792-0.792h-1.512v-2.124h2.483c1.548,0,2.16,0.648,2.16,1.908
			c0,0.72-0.036,1.224-0.036,1.224h0.072c0,0,1.44-3.563,6.227-3.563c4.859,0,7.883,3.887,7.883,9.503
			c0,5.723-3.42,9.467-8.099,9.467c-4.427,0-5.939-3.42-5.939-3.42h-0.072c0,0,0.072,0.648,0.072,1.584v8.603h-2.447V109.973z
			 M432.684,123.435c3.204,0,5.831-2.699,5.831-7.307c0-4.428-2.339-7.271-5.723-7.271c-3.023,0-5.867,2.16-5.867,7.307
			C426.924,119.799,428.904,123.435,432.684,123.435z"/>
		<path fill="#00BBE3" d="M452.916,106.625c5.003,0,7.595,3.852,7.595,8.351c0,0.432-0.072,1.224-0.072,1.224h-13.894
			c0.072,4.571,3.275,7.199,7.019,7.199c3.312,0,5.435-2.232,5.435-2.232l1.188,1.836c0,0-2.627,2.592-6.731,2.592
			c-5.363,0-9.467-3.888-9.467-9.467C443.989,110.188,448.056,106.625,452.916,106.625z M457.991,114.256
			c-0.144-3.744-2.448-5.579-5.111-5.579c-2.987,0-5.615,1.944-6.227,5.579H457.991z"/>
		<path fill="#00BBE3" d="M465.408,109.973c0-0.504-0.288-0.792-0.792-0.792h-1.512v-2.124h2.52c1.512,0,2.196,0.612,2.196,2.052
			v1.224c0,0.756-0.072,1.368-0.072,1.368h0.072c0.864-2.735,2.879-4.823,5.723-4.823c0.504,0,0.972,0.108,0.972,0.108v2.412
			c0,0-0.432-0.072-0.9-0.072c-2.556,0-4.463,2.016-5.255,4.679c-0.36,1.152-0.504,2.376-0.504,3.528v7.631h-2.447V109.973z"/>
		<path fill="#00BBE3" d="M478.656,109.108h-2.376v-2.052h2.412v-5.003h2.412v5.003h4.535v2.052h-4.535v9.215
			c0,4.248,2.7,4.788,4.067,4.788c0.504,0,0.828-0.072,0.828-0.072v2.195c0,0-0.432,0.072-1.043,0.072
			c-2.088,0-6.299-0.684-6.299-6.731V109.108z"/>
		<path fill="#00BBE3" d="M489.816,120.735c0,0,2.016,2.735,5.579,2.735c2.016,0,3.815-0.972,3.815-2.879
			c0-3.959-10.15-3.24-10.15-9.071c0-3.276,2.808-4.896,6.443-4.896c1.836,0,5.507,0.72,5.507,3.275v1.548h-2.304v-0.864
			c0-1.332-1.943-1.836-3.131-1.836c-2.52,0-4.032,0.864-4.032,2.628c0,4.067,10.151,3.131,10.151,9.143
			c0,3.024-2.736,5.076-6.335,5.076c-4.716,0-6.947-3.168-6.947-3.168L489.816,120.735z"/>
		<path fill="#00BBE3" d="M516.347,109.108h-2.376v-2.052h2.412v-5.003h2.412v5.003h4.535v2.052h-4.535v9.215
			c0,4.248,2.7,4.788,4.067,4.788c0.504,0,0.828-0.072,0.828-0.072v2.195c0,0-0.432,0.072-1.043,0.072
			c-2.088,0-6.299-0.684-6.299-6.731V109.108z"/>
		<path fill="#00BBE3" d="M528.118,109.973c0-0.504-0.288-0.792-0.792-0.792h-1.512v-2.124h2.556c1.548,0,2.196,0.648,2.196,2.124
			v8.747c0,2.843,0.468,5.363,3.959,5.363c4.104,0,6.659-3.636,6.659-7.559v-8.675h2.448v15.19c0,0.54,0.288,0.792,0.792,0.792
			h1.512v2.124h-2.484c-1.512,0-2.196-0.648-2.196-2.016v-0.828c0-0.72,0.072-1.296,0.072-1.296h-0.072
			c-0.72,1.764-3.095,4.572-7.055,4.572c-4.284,0-6.083-2.304-6.083-7.02V109.973z"/>
		<path fill="#00BBE3" d="M549.898,109.973c0-0.504-0.288-0.792-0.792-0.792h-1.512v-2.124h2.52c1.512,0,2.196,0.612,2.196,2.052
			v1.224c0,0.756-0.072,1.368-0.072,1.368h0.072c0.864-2.735,2.879-4.823,5.723-4.823c0.504,0,0.972,0.108,0.972,0.108v2.412
			c0,0-0.432-0.072-0.9-0.072c-2.556,0-4.463,2.016-5.255,4.679c-0.36,1.152-0.504,2.376-0.504,3.528v7.631h-2.447V109.973z"/>
		<path fill="#00BBE3" d="M563.182,109.973c0-0.504-0.288-0.792-0.792-0.792h-1.512v-2.124h2.52c1.512,0,2.196,0.648,2.196,2.016
			v0.828c0,0.72-0.072,1.296-0.072,1.296h0.072c0.648-1.656,2.952-4.571,7.199-4.571c4.5,0,6.083,2.556,6.083,7.019v8.603
			c0,0.54,0.288,0.792,0.792,0.792h1.512v2.124h-2.556c-1.548,0-2.196-0.648-2.196-2.196v-8.675c0-2.844-0.432-5.363-3.923-5.363
			c-3.096,0-5.759,2.124-6.587,5.111c-0.216,0.756-0.288,1.584-0.288,2.448v8.675h-2.447V109.973z"/>
		<path fill="#00BBE3" d="M595.077,109.108h-2.376v-2.052h2.412v-5.003h2.412v5.003h4.535v2.052h-4.535v9.215
			c0,4.248,2.7,4.788,4.067,4.788c0.504,0,0.828-0.072,0.828-0.072v2.195c0,0-0.432,0.072-1.043,0.072
			c-2.088,0-6.299-0.684-6.299-6.731V109.108z"/>
		<path fill="#00BBE3" d="M614.408,106.625c5.292,0,9.575,4.031,9.575,9.395c0,5.472-4.283,9.575-9.539,9.575
			c-5.292,0-9.575-4.104-9.575-9.575C604.869,110.656,609.152,106.625,614.408,106.625z M614.444,123.399
			c3.852,0,7.019-3.167,7.019-7.379c0-4.104-3.167-7.163-7.019-7.163c-3.888,0-7.055,3.06-7.055,7.163
			C607.389,120.231,610.556,123.399,614.444,123.399z"/>
		<path fill="#00BBE3" d="M629.42,122.391h2.771v2.771h-2.771V122.391z M629.492,99.858h2.52l-0.108,18.682H629.6L629.492,99.858z"
			/>
	</g>
</g>
</svg>
