<?xml version="1.0" encoding="utf-8"?>
<!-- Generator: Adobe Illustrator 16.0.0, SVG Export Plug-In . SVG Version: 6.00 Build 0)  -->
<!DOCTYPE svg PUBLIC "-//W3C//DTD SVG 1.1//EN" "http://www.w3.org/Graphics/SVG/1.1/DTD/svg11.dtd">
<svg version="1.1" id="Layer_1" xmlns="http://www.w3.org/2000/svg" xmlns:xlink="http://www.w3.org/1999/xlink" x="0px" y="0px"
	 width="508.14px" height="315.116px" viewBox="0 0 508.14 315.116" enable-background="new 0 0 508.14 315.116"
	 xml:space="preserve">
<g>
	<path fill="#091F21" d="M210.03,4.07l-0.047,0.029c-0.025,0-0.043-0.007-0.068-0.007c-7.396,0-13.776,4.058-17.238,10.026
		l-0.069,0.042l-45.171,78.231v0.188c-1.69,2.935-2.727,6.291-2.727,9.914c0,3.467,0.963,6.675,2.514,9.522l-0.004,0.232
		l45.326,78.503l0.163,0.098c3.451,6.004,9.854,10.093,17.278,10.093c0.032,0,0.065-0.007,0.094-0.007l0.029,0.011h90.566
		l0.021-0.011c7.305-0.036,13.62-4.02,17.086-9.89l0.059-0.037l44.486-77.054c2.238-3.23,3.563-7.134,3.563-11.36
		c0-3.582-1.021-6.895-2.669-9.803l0.003-0.179l-45.388-78.603l-0.062-0.036c-3.48-5.889-9.825-9.883-17.162-9.883
		c-0.083,0-0.152,0.022-0.231,0.022l-0.073-0.04H210.03z"/>
	<g>
		<path fill="#FFFFFF" d="M232.661,51.205h-44.87v102.607h12.545v-39.625h33.347c27.592,0,27.907-29.294,27.907-30.542
			C261.589,68.682,254.02,51.205,232.661,51.205z M200.335,63.16h28.671c18.05,0,19.459,15.794,19.459,20.634
			c0,4.292-1.228,18.29-16.975,18.29h-31.155V63.16z"/>
		<g>
			<path fill="#00BBE3" d="M263.795,121.764v32.036h11.954v-28.378c0-18.057,15.793-19.462,20.632-19.462
				c4.295,0,18.292,1.228,18.292,16.976v30.864h12.103v-33.059c0-27.593-29.294-27.91-30.543-27.91
				C281.268,92.831,263.795,100.408,263.795,121.764z"/>
		</g>
	</g>
</g>
<g>
	<path fill="#00BBE3" d="M3.786,261.171l1.51-2.417c1.933,1.57,5.435,4.107,10.931,4.107c6.462,0,9.664-3.865,9.664-7.973
		c0-4.106-3.383-8.274-9.966-8.274h-2.536v-3.382h2.295c6.522,0,9.663-3.684,9.663-7.488c0-3.865-3.322-7.79-9.361-7.79
		c-4.832,0-7.791,2.294-9.482,4.046c-0.725-1.147-0.846-1.51-1.51-2.417c1.208-1.508,4.71-4.77,11.293-4.77
		c6.885-0.061,12.441,3.744,12.441,10.931c0,3.262-2.235,8.577-8.154,9.18c5.134,0.181,8.878,4.892,8.878,9.784
		c0,7.006-6.281,11.535-12.864,11.414C9.101,266.122,5.235,262.619,3.786,261.171z"/>
	<path fill="#00BBE3" d="M36.879,260.082h4.287v5.194h-4.287V260.082z"/>
	<path fill="#00BBE3" d="M47.023,245.468c0-13.166,5.375-20.654,14.191-20.654c9.119,0,14.495,7.488,14.495,20.654
		c0,13.045-5.376,20.654-14.495,20.654C52.397,266.122,47.023,258.513,47.023,245.468z M50.405,245.468
		c0,9.301,3.321,17.695,10.81,17.695c7.791,0,10.992-8.395,10.992-17.695c0-8.998-3.201-17.636-10.992-17.636
		C53.726,227.832,50.405,236.47,50.405,245.468z"/>
	<path d="M102.821,228.859v36.417h-3.503v-40.705h4.892l23.13,36.236v-36.236h3.503v40.705h-4.289L102.821,228.859z"/>
	<path d="M138.389,236.046h3.562v17.272c0,5.678,1.571,9.785,8.456,9.785c1.328,0,9.239-0.304,9.239-8.638v-18.42h3.564v29.23
		h-3.141v-3.865c-2.294,4.469-9.24,4.65-9.783,4.65c-7.247,0-11.897-3.14-11.897-12.743V236.046z"/>
	<path d="M168.158,238.884v-2.838h5.013v-7.791h3.503v7.791c2.053,0,4.892,0,7.127,0v2.838h-7.127v17.998
		c0,3.02,0,6.341,5.255,6.341c0.663,0,1.449-0.06,2.295-0.301l0.361,2.354c-1.691,0.785-3.199,0.785-3.804,0.785
		c-1.752,0.061-7.611,0.121-7.611-8.998v-18.18H168.158z"/>
	<path d="M202.702,235.262v3.562h-1.629c-4.108,0-7.792,2.598-7.792,8.335v18.118h-3.563v-29.23h3.2v4.529
		c2.295-4.408,5.799-5.254,8.756-5.313H202.702z"/>
	<path d="M207.049,224.571h3.562v5.193h-3.562V224.571z M207.049,236.046h3.562v29.23h-3.562V236.046z"/>
	<path d="M215.563,238.884v-2.838h5.012v-7.791h3.502v7.791c2.054,0,4.892,0,7.128,0v2.838h-7.128v17.998
		c0,3.02,0,6.341,5.256,6.341c0.662,0,1.449-0.06,2.295-0.301l0.361,2.354c-1.691,0.785-3.2,0.785-3.804,0.785
		c-1.751,0.061-7.61,0.121-7.61-8.998v-18.18H215.563z"/>
	<path d="M236.819,224.571h3.564v5.193h-3.564V224.571z M236.819,236.046h3.564v29.23h-3.564V236.046z"/>
	<path d="M259.407,235.262c8.576,0,13.891,5.798,13.891,15.399c0,9.663-5.314,15.461-13.891,15.461s-13.89-5.798-13.89-15.461
		C245.517,241.06,250.831,235.262,259.407,235.262z M259.407,238.16c-6.884,0-10.389,6.161-10.389,12.501
		c0,6.341,3.504,12.562,10.389,12.562c6.704,0,10.388-6.28,10.388-12.562C269.794,244.381,266.111,238.16,259.407,238.16z"/>
	<path d="M303.248,265.276h-3.562v-17.271c0-5.678-1.992-9.725-7.851-9.725c-2.477,0-9.844,1.329-9.844,9.543v17.453h-3.564v-29.23
		h3.14v4.771c2.658-4.771,7.188-5.555,9.784-5.555c7.127,0,11.897,2.898,11.897,12.743V265.276z"/>
	<path d="M352.825,227.894l-1.389,2.838c-2.838-1.872-7.308-3.502-11.475-3.502c-4.409,0-8.515,1.63-9.662,6.038
		c-0.966,4.771,3.079,6.463,7.005,7.973l10.569,4.106c5.857,2.175,7.066,6.342,7.006,8.998c-0.183,7.308-6.401,11.596-13.71,11.596
		c-5.435,0-10.99-1.569-15.7-5.133c0.542-0.846,1.147-2.113,1.629-2.839c3.261,2.477,8.637,4.711,13.891,4.711
		c4.105,0,8.938-1.872,9.966-6.221c0.966-3.926-1.271-6.402-4.834-7.973l-12.318-4.59c-4.892-1.871-7.911-5.555-7.247-10.931
		c0.845-5.375,6.099-9.059,13.347-9.059C344.372,223.907,349.083,225.115,352.825,227.894z"/>
	<path d="M359.466,274.818c2.776,0.423,5.072,0.362,6.642-3.08l2.236-5.435l-13.406-30.258h3.742l11.293,26.211l10.932-26.211h3.746
		l-15.945,37.505c-1.69,3.865-5.374,4.409-6.886,4.409c-0.845,0-1.749-0.182-2.594-0.424L359.466,274.818z"/>
	<path d="M402.28,254.104c-2.655-1.208-6.039-2.354-9.359-3.624c-3.865-1.812-5.678-4.287-5.193-8.695
		c0.724-3.806,4.528-6.584,9.724-6.584c3.32,0,6.701,0.967,9.664,2.778l-1.392,2.718c-2.176-1.087-5.191-2.354-7.851-2.354
		c-4.529,0-6.645,2.053-6.645,4.528c0,2.598,1.752,4.047,5.438,5.316l6.218,2.354c4.048,1.631,5.738,4.409,5.738,6.885
		c0,5.497-4.771,8.697-10.267,8.697c-3.926,0-7.912-1.208-11.293-3.684l1.571-2.719c2.414,1.511,5.674,3.384,9.238,3.384
		c3.02,0,5.858-1.148,6.824-3.504C405.723,256.217,403.49,254.647,402.28,254.104z"/>
	<path d="M411.76,238.884v-2.838h5.012v-7.791h3.503v7.791c2.054,0,4.892,0,7.128,0v2.838h-7.128v17.998c0,3.02,0,6.341,5.257,6.341
		c0.663,0,1.448-0.06,2.293-0.301l0.362,2.354c-1.691,0.785-3.2,0.785-3.805,0.785c-1.752,0.061-7.61,0.121-7.61-8.998v-18.18
		H411.76z"/>
	<path d="M431.507,250.661c0-8.817,5.86-15.399,13.59-15.399c7.73,0,13.588,5.616,13.588,14.978c0,0.543,0,1.207-0.061,1.69h-23.373
		c0,6.462,4.591,10.992,11.596,10.992c1.026,0,3.985,0.182,8.335-1.511l1.146,2.657c-2.054,1.027-5.797,1.993-10.567,1.993
		C437.791,266.062,431.507,260.324,431.507,250.661z M435.313,248.97h19.81c-0.062-7.246-4.651-10.628-10.025-10.628
		C439.72,238.342,435.313,243.354,435.313,248.97z"/>
	<path d="M483.926,246.978c0-4.167-2.235-8.697-7.851-8.697c-3.384,0-8.096,1.994-8.096,10.206v16.79h-3.561v-29.23h3.201v4.41
		c2.353-4.41,6.4-5.194,9.42-5.194c2.776,0,7.188,1.268,9.239,5.979c1.934-4.409,6.16-5.979,9.844-5.979
		c5.616,0,10.691,2.295,10.691,11.655v18.359h-3.563v-17.333c0-6.28-2.055-9.663-7.851-9.663c-1.392,0-8.094,1.087-8.094,8.637
		v18.359h-3.442L483.926,246.978z"/>
</g>
<g>
	<path fill="#00BBE3" d="M37.535,285.576h-5.557c-0.447,0-0.703,0.191-0.703,0.703v1.501h-2.044v-2.363
		c0-1.373,0.447-1.821,1.82-1.821h15.203c1.373,0,1.82,0.448,1.82,1.821v2.363h-2.076v-1.501c0-0.512-0.223-0.703-0.702-0.703
		h-5.525v20.473h-2.236V285.576z"/>
	<path fill="#00BBE3" d="M51.234,286.183c0-0.447-0.255-0.702-0.702-0.702H49.19v-1.885h2.268c1.374,0,1.949,0.575,1.949,1.885
		v6.802c0,0.735-0.064,1.311-0.064,1.311h0.064c0.606-1.533,2.746-3.992,6.355-3.992c3.992,0,5.397,2.268,5.397,6.228v7.634
		c0,0.479,0.255,0.702,0.703,0.702h1.341v1.885h-2.268c-1.373,0-1.948-0.574-1.948-1.948v-7.697c0-2.523-0.382-4.759-3.513-4.759
		c-2.715,0-5.078,1.884-5.813,4.567c-0.192,0.639-0.255,1.373-0.255,2.14v7.697h-2.173V286.183z"/>
	<path fill="#00BBE3" d="M77.072,289.601c4.439,0,6.739,3.417,6.739,7.409c0,0.384-0.064,1.086-0.064,1.086H71.418
		c0.064,4.057,2.907,6.388,6.228,6.388c2.938,0,4.824-1.979,4.824-1.979l1.053,1.629c0,0-2.332,2.299-5.972,2.299
		c-4.76,0-8.401-3.449-8.401-8.399C69.15,292.763,72.76,289.601,77.072,289.601z M81.575,296.371
		c-0.128-3.321-2.172-4.95-4.536-4.95c-2.65,0-4.982,1.725-5.525,4.95H81.575z"/>
	<path fill="#00BBE3" d="M96.232,302.12c0,0,1.788,2.427,4.95,2.427c1.788,0,3.386-0.861,3.386-2.555
		c0-3.513-9.007-2.874-9.007-8.048c0-2.907,2.491-4.344,5.717-4.344c1.629,0,4.887,0.639,4.887,2.906v1.373h-2.045v-0.767
		c0-1.182-1.724-1.629-2.778-1.629c-2.235,0-3.578,0.768-3.578,2.332c0,3.608,9.007,2.779,9.007,8.112
		c0,2.683-2.427,4.503-5.62,4.503c-4.185,0-6.165-2.811-6.165-2.811L96.232,302.12z"/>
	<path fill="#00BBE3" d="M111.784,310.808c1.405,0,2.364-1.15,2.971-2.62l0.958-2.203l-5.653-13.382
		c-0.256-0.574-0.543-0.734-1.119-0.734h-0.318v-1.884h0.99c1.437,0,1.884,0.319,2.458,1.756l4.12,10.028
		c0.319,0.799,0.575,1.725,0.575,1.725h0.063c0,0,0.225-0.926,0.543-1.725l3.961-10.028c0.543-1.437,1.021-1.756,2.491-1.756h0.99
		v1.884h-0.319c-0.575,0-0.894,0.16-1.118,0.734l-6.931,16.799c-0.831,2.045-2.459,3.354-4.6,3.354
		c-2.235,0-3.482-1.564-3.482-1.564l1.022-1.598C109.389,309.626,110.411,310.808,111.784,310.808z"/>
	<path fill="#00BBE3" d="M127.497,302.12c0,0,1.788,2.427,4.95,2.427c1.788,0,3.386-0.861,3.386-2.555
		c0-3.513-9.007-2.874-9.007-8.048c0-2.907,2.491-4.344,5.717-4.344c1.629,0,4.886,0.639,4.886,2.906v1.373h-2.044v-0.767
		c0-1.182-1.724-1.629-2.778-1.629c-2.236,0-3.578,0.768-3.578,2.332c0,3.608,9.007,2.779,9.007,8.112
		c0,2.683-2.427,4.503-5.621,4.503c-4.184,0-6.164-2.811-6.164-2.811L127.497,302.12z"/>
	<path fill="#00BBE3" d="M142.346,291.805h-2.108v-1.82h2.141v-4.44h2.139v4.44h4.024v1.82h-4.024v8.176
		c0,3.769,2.396,4.247,3.608,4.247c0.448,0,0.735-0.063,0.735-0.063v1.949c0,0-0.384,0.063-0.927,0.063
		c-1.852,0-5.588-0.607-5.588-5.973V291.805z"/>
	<path fill="#00BBE3" d="M158.953,289.601c4.439,0,6.739,3.417,6.739,7.409c0,0.384-0.064,1.086-0.064,1.086H153.3
		c0.064,4.057,2.907,6.388,6.227,6.388c2.938,0,4.823-1.979,4.823-1.979l1.055,1.629c0,0-2.332,2.299-5.973,2.299
		c-4.759,0-8.399-3.449-8.399-8.399C151.032,292.763,154.641,289.601,158.953,289.601z M163.456,296.371
		c-0.129-3.321-2.172-4.95-4.536-4.95c-2.651,0-4.982,1.725-5.526,4.95H163.456z"/>
	<path fill="#00BBE3" d="M170.035,292.57c0-0.446-0.257-0.702-0.704-0.702h-1.341v-1.884h2.236c1.341,0,1.948,0.574,1.948,1.787
		v0.735c0,0.639-0.064,1.15-0.064,1.15h0.064c0.798-2.173,3.32-4.057,5.812-4.057c2.972,0,4.504,1.373,4.983,4.024h0.063
		c0.863-2.172,3.194-4.024,5.91-4.024c3.896,0,5.333,2.268,5.333,6.228v7.634c0,0.479,0.256,0.702,0.703,0.702h1.341v1.885h-2.268
		c-1.373,0-1.948-0.574-1.948-1.948v-7.729c0-2.618-0.543-4.791-3.481-4.791c-2.426,0-4.439,2.173-5.078,4.536
		c-0.223,0.703-0.288,1.469-0.288,2.331v7.602h-2.171v-9.678c0-2.427-0.351-4.791-3.386-4.791c-2.619,0-4.566,2.269-5.238,4.728
		c-0.191,0.67-0.255,1.405-0.255,2.14v7.602h-2.171V292.57z"/>
	<path fill="#00BBE3" d="M208.644,291.805h-2.109v-1.82h2.141v-4.44h2.14v4.44h4.023v1.82h-4.023v8.176
		c0,3.769,2.395,4.247,3.609,4.247c0.447,0,0.734-0.063,0.734-0.063v1.949c0,0-0.382,0.063-0.926,0.063
		c-1.852,0-5.589-0.607-5.589-5.973V291.805z"/>
	<path fill="#00BBE3" d="M218.831,286.183c0-0.447-0.255-0.702-0.703-0.702h-1.341v-1.885h2.267c1.375,0,1.949,0.575,1.949,1.885
		v6.802c0,0.735-0.064,1.311-0.064,1.311h0.064c0.607-1.533,2.747-3.992,6.356-3.992c3.992,0,5.397,2.268,5.397,6.228v7.634
		c0,0.479,0.257,0.702,0.704,0.702h1.34v1.885h-2.268c-1.373,0-1.947-0.574-1.947-1.948v-7.697c0-2.523-0.383-4.759-3.514-4.759
		c-2.714,0-5.078,1.884-5.812,4.567c-0.192,0.639-0.256,1.373-0.256,2.14v7.697h-2.172V286.183z"/>
	<path fill="#00BBE3" d="M244.667,289.601c4.44,0,6.74,3.417,6.74,7.409c0,0.384-0.064,1.086-0.064,1.086h-12.328
		c0.064,4.057,2.906,6.388,6.228,6.388c2.938,0,4.822-1.979,4.822-1.979l1.055,1.629c0,0-2.332,2.299-5.973,2.299
		c-4.758,0-8.399-3.449-8.399-8.399C236.747,292.763,240.355,289.601,244.667,289.601z M249.171,296.371
		c-0.129-3.321-2.172-4.95-4.536-4.95c-2.65,0-4.982,1.725-5.525,4.95H249.171z"/>
	<path fill="#00BBE3" d="M270.855,289.601c4.438,0,6.738,3.417,6.738,7.409c0,0.384-0.063,1.086-0.063,1.086h-12.329
		c0.065,4.057,2.907,6.388,6.229,6.388c2.938,0,4.822-1.979,4.822-1.979l1.055,1.629c0,0-2.332,2.299-5.973,2.299
		c-4.76,0-8.4-3.449-8.4-8.399C262.933,292.763,266.542,289.601,270.855,289.601z M275.358,296.371
		c-0.128-3.321-2.173-4.95-4.535-4.95c-2.651,0-4.983,1.725-5.526,4.95H275.358z"/>
	<path fill="#00BBE3" d="M285.352,297.681l-3.481-5.143c-0.383-0.542-0.83-0.67-1.469-0.67h-0.671v-1.884h1.183
		c1.629,0,2.044,0.255,3.002,1.756l2.3,3.577c0.255,0.415,0.543,0.958,0.543,0.958h0.063c0,0,0.288-0.543,0.511-0.958l2.331-3.577
		c0.959-1.469,1.343-1.756,3.003-1.756h1.15v1.884h-0.64c-0.671,0-1.149,0.095-1.5,0.639l-3.482,5.174l5.622,8.368h-2.556
		l-3.929-5.972c-0.255-0.416-0.511-0.895-0.511-0.895h-0.063c0,0-0.256,0.446-0.543,0.895l-3.929,5.972h-2.523L285.352,297.681z"/>
	<path fill="#00BBE3" d="M297.168,292.57c0-0.446-0.256-0.702-0.702-0.702h-1.342v-1.884h2.203c1.374,0,1.916,0.574,1.916,1.692
		c0,0.639-0.031,1.086-0.031,1.086h0.063c0,0,1.278-3.162,5.526-3.162c4.311,0,6.993,3.449,6.993,8.432
		c0,5.078-3.033,8.399-7.187,8.399c-3.927,0-5.269-3.034-5.269-3.034h-0.064c0,0,0.064,0.575,0.064,1.406v7.633h-2.172V292.57z
		 M304.386,304.516c2.843,0,5.174-2.396,5.174-6.483c0-3.929-2.076-6.452-5.078-6.452c-2.683,0-5.206,1.917-5.206,6.484
		C299.276,301.29,301.033,304.516,304.386,304.516z"/>
	<path fill="#00BBE3" d="M322.334,289.601c4.438,0,6.738,3.417,6.738,7.409c0,0.384-0.063,1.086-0.063,1.086H316.68
		c0.064,4.057,2.907,6.388,6.229,6.388c2.938,0,4.823-1.979,4.823-1.979l1.054,1.629c0,0-2.332,2.299-5.973,2.299
		c-4.759,0-8.399-3.449-8.399-8.399C314.414,292.763,318.022,289.601,322.334,289.601z M326.837,296.371
		c-0.128-3.321-2.173-4.95-4.535-4.95c-2.651,0-4.983,1.725-5.525,4.95H326.837z"/>
	<path fill="#00BBE3" d="M333.415,292.57c0-0.446-0.255-0.702-0.703-0.702h-1.341v-1.884h2.236c1.341,0,1.948,0.542,1.948,1.82
		v1.085c0,0.671-0.064,1.214-0.064,1.214h0.064c0.766-2.427,2.555-4.28,5.078-4.28c0.446,0,0.862,0.097,0.862,0.097v2.14
		c0,0-0.384-0.063-0.799-0.063c-2.268,0-3.96,1.788-4.663,4.152c-0.319,1.022-0.447,2.107-0.447,3.129v6.771h-2.172V292.57z"/>
	<path fill="#00BBE3" d="M345.167,291.805h-2.108v-1.82h2.141v-4.44h2.14v4.44h4.023v1.82h-4.023v8.176
		c0,3.769,2.396,4.247,3.609,4.247c0.446,0,0.734-0.063,0.734-0.063v1.949c0,0-0.384,0.063-0.927,0.063
		c-1.852,0-5.589-0.607-5.589-5.973V291.805z"/>
	<path fill="#00BBE3" d="M355.067,302.12c0,0,1.787,2.427,4.951,2.427c1.788,0,3.384-0.861,3.384-2.555
		c0-3.513-9.006-2.874-9.006-8.048c0-2.907,2.491-4.344,5.717-4.344c1.629,0,4.887,0.639,4.887,2.906v1.373h-2.044v-0.767
		c0-1.182-1.725-1.629-2.779-1.629c-2.235,0-3.576,0.768-3.576,2.332c0,3.608,9.007,2.779,9.007,8.112
		c0,2.683-2.429,4.503-5.621,4.503c-4.185,0-6.164-2.811-6.164-2.811L355.067,302.12z"/>
	<path fill="#00BBE3" d="M378.603,291.805h-2.108v-1.82h2.141v-4.44h2.139v4.44h4.025v1.82h-4.025v8.176
		c0,3.769,2.396,4.247,3.609,4.247c0.447,0,0.734-0.063,0.734-0.063v1.949c0,0-0.384,0.063-0.927,0.063
		c-1.852,0-5.588-0.607-5.588-5.973V291.805z"/>
	<path fill="#00BBE3" d="M389.044,292.57c0-0.446-0.255-0.702-0.703-0.702H387v-1.884h2.268c1.374,0,1.948,0.574,1.948,1.884v7.761
		c0,2.523,0.416,4.759,3.514,4.759c3.641,0,5.908-3.226,5.908-6.707v-7.696h2.172v13.478c0,0.479,0.256,0.702,0.703,0.702h1.342
		v1.885h-2.204c-1.342,0-1.948-0.574-1.948-1.789v-0.733c0-0.64,0.064-1.15,0.064-1.15h-0.064c-0.64,1.564-2.747,4.056-6.26,4.056
		c-3.801,0-5.398-2.044-5.398-6.228V292.57z"/>
	<path fill="#00BBE3" d="M408.366,292.57c0-0.446-0.256-0.702-0.702-0.702h-1.342v-1.884h2.235c1.342,0,1.948,0.542,1.948,1.82
		v1.085c0,0.671-0.063,1.214-0.063,1.214h0.063c0.767-2.427,2.556-4.28,5.079-4.28c0.446,0,0.861,0.097,0.861,0.097v2.14
		c0,0-0.384-0.063-0.798-0.063c-2.268,0-3.96,1.788-4.664,4.152c-0.318,1.022-0.447,2.107-0.447,3.129v6.771h-2.171V292.57z"/>
	<path fill="#00BBE3" d="M420.151,292.57c0-0.446-0.257-0.702-0.704-0.702h-1.34v-1.884h2.235c1.34,0,1.947,0.574,1.947,1.787v0.735
		c0,0.639-0.063,1.15-0.063,1.15h0.063c0.575-1.47,2.619-4.057,6.388-4.057c3.992,0,5.398,2.268,5.398,6.228v7.634
		c0,0.479,0.255,0.702,0.702,0.702h1.342v1.885h-2.268c-1.374,0-1.948-0.574-1.948-1.948v-7.697c0-2.523-0.385-4.759-3.482-4.759
		c-2.746,0-5.109,1.884-5.845,4.535c-0.191,0.671-0.255,1.405-0.255,2.172v7.697h-2.171V292.57z"/>
	<path fill="#00BBE3" d="M448.445,291.805h-2.108v-1.82h2.141v-4.44h2.139v4.44h4.025v1.82h-4.025v8.176
		c0,3.769,2.396,4.247,3.609,4.247c0.447,0,0.734-0.063,0.734-0.063v1.949c0,0-0.383,0.063-0.927,0.063
		c-1.853,0-5.588-0.607-5.588-5.973V291.805z"/>
	<path fill="#00BBE3" d="M465.595,289.601c4.694,0,8.495,3.577,8.495,8.336c0,4.854-3.801,8.495-8.463,8.495
		c-4.695,0-8.497-3.642-8.497-8.495C457.13,293.178,460.932,289.601,465.595,289.601z M465.627,304.483
		c3.418,0,6.227-2.811,6.227-6.547c0-3.641-2.809-6.356-6.227-6.356c-3.45,0-6.261,2.716-6.261,6.356
		C459.367,301.673,462.177,304.483,465.627,304.483z"/>
	<path fill="#00BBE3" d="M478.912,303.59h2.459v2.459h-2.459V303.59z M478.975,283.596h2.235l-0.096,16.576h-2.043L478.975,283.596z
		"/>
</g>
</svg>
