<?xml version="1.0" encoding="utf-8"?>
<!-- Generator: Adobe Illustrator 16.0.0, SVG Export Plug-In . SVG Version: 6.00 Build 0)  -->
<!DOCTYPE svg PUBLIC "-//W3C//DTD SVG 1.1//EN" "http://www.w3.org/Graphics/SVG/1.1/DTD/svg11.dtd">
<svg version="1.1" id="Layer_1" xmlns="http://www.w3.org/2000/svg" xmlns:xlink="http://www.w3.org/1999/xlink" x="0px" y="0px" viewBox="0 0 1006.977 179.069" enable-background="new 0 0 1006.977 179.069"
	 xml:space="preserve">
<g>
	<path fill="#091F21" d="M47.095,2.388l-0.031,0.02c-0.017,0-0.029-0.005-0.046-0.005c-4.949,0-9.22,2.716-11.537,6.71l-0.046,0.028
		L5.205,61.497v0.126c-1.131,1.965-1.825,4.211-1.825,6.636c0,2.319,0.644,4.467,1.682,6.372L5.06,74.786l30.334,52.538l0.109,0.064
		c2.31,4.02,6.595,6.756,11.563,6.756c0.022,0,0.044-0.006,0.063-0.006l0.02,0.008h60.612l0.014-0.008
		c4.889-0.023,9.115-2.689,11.435-6.618l0.039-0.024l29.772-51.568c1.498-2.162,2.385-4.775,2.385-7.603
		c0-2.397-0.684-4.615-1.786-6.562l0.002-0.119L119.247,9.039l-0.042-0.024C116.876,5.074,112.63,2.4,107.72,2.4
		c-0.056,0-0.102,0.015-0.155,0.015l-0.049-0.027H47.095z"/>
	<g>
		<path fill="#FFFFFF" d="M62.241,33.934H32.212v68.67h8.396V76.085h22.317c18.466,0,18.677-19.605,18.677-20.44
			C81.602,45.63,76.536,33.934,62.241,33.934z M40.607,41.935h19.188c12.08,0,13.023,10.57,13.023,13.81
			c0,2.871-0.821,12.24-11.36,12.24H40.607V41.935z"/>
		<g>
			<path fill="#00BBE3" d="M83.078,81.155v21.44h8V83.603c0-12.084,10.569-13.024,13.808-13.024c2.875,0,12.242,0.821,12.242,11.36
				v20.657h8.1V80.471c0-18.467-19.605-18.679-20.441-18.679C94.771,61.792,83.078,66.862,83.078,81.155z"/>
		</g>
	</g>
</g>
<g>
	<g>
		<path fill="#00BBE3" d="M179.07,91.749l2.478-3.967c3.172,2.577,8.92,6.741,17.94,6.741c10.607,0,15.861-6.344,15.861-13.086
			c0-6.739-5.552-13.58-16.356-13.58h-4.163v-5.551h3.767c10.706,0,15.86-6.045,15.86-12.29c0-6.344-5.452-12.785-15.364-12.785
			c-7.93,0-12.787,3.765-15.562,6.64c-1.189-1.883-1.389-2.478-2.479-3.967c1.982-2.475,7.731-7.828,18.536-7.828
			c11.301-0.099,20.42,6.146,20.42,17.94c0,5.354-3.668,14.077-13.383,15.066c8.426,0.297,14.572,8.028,14.572,16.059
			c0,11.498-10.308,18.933-21.113,18.733C187.792,99.875,181.448,94.126,179.07,91.749z"/>
		<path fill="#00BBE3" d="M233.384,89.962h7.036v8.525h-7.036V89.962z"/>
		<path fill="#00BBE3" d="M250.033,65.976c0-21.608,8.821-33.899,23.292-33.899c14.967,0,23.791,12.291,23.791,33.899
			c0,21.41-8.823,33.899-23.791,33.899C258.854,99.875,250.033,87.386,250.033,65.976z M255.584,65.976
			c0,15.266,5.45,29.043,17.741,29.043c12.788,0,18.042-13.777,18.042-29.043c0-14.768-5.254-28.945-18.042-28.945
			C261.034,37.03,255.584,51.208,255.584,65.976z"/>
		<path d="M341.614,38.717v59.771h-5.75V31.679h8.029l37.963,59.474V31.679h5.75v66.809h-7.04L341.614,38.717z"/>
		<path d="M399.99,50.512h5.846V78.86c0,9.319,2.579,16.061,13.879,16.061c2.18,0,15.164-0.499,15.164-14.177V50.512h5.85v47.976
			h-5.154v-6.344c-3.767,7.334-15.166,7.632-16.059,7.632c-11.894,0-19.526-5.152-19.526-20.915V50.512z"/>
		<path d="M448.85,55.17v-4.658h8.227V37.725h5.75v12.787c3.369,0,8.029,0,11.697,0v4.658h-11.697v29.539
			c0,4.956,0,10.407,8.625,10.407c1.088,0,2.379-0.098,3.768-0.493l0.592,3.864c-2.775,1.288-5.25,1.288-6.242,1.288
			c-2.877,0.1-12.492,0.199-12.492-14.768V55.17H448.85z"/>
		<path d="M505.545,49.225v5.846h-2.674c-6.742,0-12.787,4.264-12.787,13.68v29.737h-5.848V50.512h5.25v7.434
			c3.768-7.234,9.518-8.623,14.373-8.721H505.545z"/>
		<path d="M512.68,31.679h5.848v8.524h-5.848V31.679z M512.68,50.512h5.848v47.976h-5.848V50.512z"/>
		<path d="M526.655,55.17v-4.658h8.227V37.725h5.748v12.787c3.371,0,8.029,0,11.699,0v4.658h-11.699v29.539
			c0,4.956,0,10.407,8.627,10.407c1.086,0,2.377-0.098,3.766-0.493l0.594,3.864c-2.775,1.288-5.252,1.288-6.244,1.288
			c-2.875,0.1-12.49,0.199-12.49-14.768V55.17H526.655z"/>
		<path d="M561.542,31.679h5.85v8.524h-5.85V31.679z M561.542,50.512h5.85v47.976h-5.85V50.512z"/>
		<path d="M598.614,49.225c14.076,0,22.799,9.516,22.799,25.274c0,15.86-8.723,25.376-22.799,25.376s-22.797-9.516-22.797-25.376
			C575.817,58.74,584.538,49.225,598.614,49.225z M598.614,53.982c-11.299,0-17.051,10.111-17.051,20.517
			c0,10.407,5.752,20.617,17.051,20.617c11.004,0,17.049-10.308,17.049-20.617C615.663,64.191,609.618,53.982,598.614,53.982z"/>
		<path d="M670.569,98.487h-5.848V70.14c0-9.318-3.27-15.96-12.885-15.96c-4.064,0-16.156,2.181-16.156,15.662v28.646h-5.85V50.512
			h5.152v7.83c4.363-7.83,11.797-9.117,16.059-9.117c11.697,0,19.527,4.758,19.527,20.915V98.487z"/>
		<path d="M751.938,37.132l-2.279,4.657c-4.656-3.072-11.992-5.747-18.832-5.747c-7.236,0-13.975,2.675-15.857,9.91
			c-1.586,7.831,5.053,10.607,11.496,13.085l17.348,6.74c9.613,3.569,11.598,10.408,11.498,14.768
			c-0.299,11.994-10.506,19.032-22.502,19.032c-8.92,0-18.037-2.576-25.768-8.425c0.889-1.388,1.883-3.468,2.672-4.659
			c5.354,4.064,14.176,7.732,22.799,7.732c6.738,0,14.672-3.073,16.357-10.21c1.584-6.443-2.086-10.509-7.934-13.086l-20.219-7.533
			c-8.027-3.07-12.984-9.116-11.895-17.939c1.387-8.822,10.01-14.868,21.906-14.868C738.065,30.589,745.797,32.571,751.938,37.132z"
			/>
		<path d="M762.84,114.148c4.557,0.693,8.324,0.595,10.9-5.056l3.67-8.92l-22.004-49.661h6.143l18.535,43.02l17.941-43.02h6.148
			l-26.17,61.556c-2.775,6.344-8.82,7.237-11.303,7.237c-1.387,0-2.871-0.299-4.256-0.696L762.84,114.148z"/>
		<path d="M833.108,80.149c-4.357-1.982-9.912-3.864-15.361-5.948c-6.344-2.973-9.318-7.036-8.523-14.271
			c1.188-6.246,7.432-10.806,15.959-10.806c5.449,0,10.998,1.587,15.861,4.56l-2.283,4.461c-3.572-1.784-8.521-3.864-12.885-3.864
			c-7.436,0-10.906,3.369-10.906,7.433c0,4.263,2.875,6.642,8.926,8.725l10.205,3.863c6.645,2.677,9.418,7.236,9.418,11.3
			c0,9.022-7.83,14.274-16.85,14.274c-6.443,0-12.986-1.982-18.535-6.046l2.578-4.462c3.963,2.479,9.312,5.554,15.164,5.554
			c4.955,0,9.615-1.885,11.199-5.751C838.76,83.618,835.094,81.042,833.108,80.149z"/>
		<path d="M848.668,55.17v-4.658h8.225V37.725h5.75v12.787c3.371,0,8.029,0,11.699,0v4.658h-11.699v29.539
			c0,4.956,0,10.407,8.629,10.407c1.088,0,2.377-0.098,3.762-0.493l0.596,3.864c-2.777,1.288-5.252,1.288-6.244,1.288
			c-2.877,0.1-12.492,0.199-12.492-14.768V55.17H848.668z"/>
		<path d="M881.079,74.499c0-14.472,9.619-25.274,22.305-25.274c12.688,0,22.301,9.218,22.301,24.582c0,0.892,0,1.981-0.1,2.774
			h-38.361c0,10.606,7.535,18.042,19.033,18.042c1.684,0,6.541,0.298,13.68-2.479l1.881,4.36c-3.371,1.687-9.514,3.271-17.344,3.271
			C891.391,99.775,881.079,90.359,881.079,74.499z M887.325,71.724h32.514c-0.102-11.894-7.635-17.443-16.455-17.443
			C894.559,54.28,887.325,62.506,887.325,71.724z"/>
		<path d="M967.112,68.453c0-6.839-3.668-14.273-12.885-14.273c-5.553,0-13.287,3.272-13.287,16.75v27.558h-5.844V50.512h5.254
			v7.238c3.861-7.238,10.506-8.525,15.461-8.525c4.557,0,11.797,2.081,15.164,9.812c3.174-7.236,10.111-9.812,16.156-9.812
			c9.219,0,17.549,3.767,17.549,19.13v30.133h-5.85V70.039c0-10.309-3.373-15.859-12.885-15.859
			c-2.285,0-13.285,1.783-13.285,14.175v30.133h-5.648L967.112,68.453z"/>
	</g>
	<g>
		<path fill="#00BBE3" d="M234.461,131.805h-9.121c-0.734,0-1.154,0.314-1.154,1.154v2.463h-3.354v-3.879
			c0-2.253,0.734-2.989,2.987-2.989h24.953c2.253,0,2.988,0.736,2.988,2.989v3.879h-3.408v-2.463c0-0.84-0.365-1.154-1.152-1.154
			h-9.068v33.602h-3.67V131.805z"/>
		<path fill="#00BBE3" d="M256.945,132.8c0-0.733-0.418-1.152-1.152-1.152h-2.202v-3.094h3.722c2.255,0,3.199,0.944,3.199,3.094
			v11.164c0,1.206-0.105,2.15-0.105,2.15h0.105c0.995-2.517,4.507-6.552,10.431-6.552c6.552,0,8.859,3.722,8.859,10.221v12.529
			c0,0.785,0.419,1.152,1.154,1.152h2.201v3.094h-3.722c-2.253,0-3.198-0.942-3.198-3.198v-12.633c0-4.142-0.627-7.811-5.766-7.811
			c-4.456,0-8.334,3.092-9.541,7.496c-0.315,1.048-0.418,2.254-0.418,3.512v12.634h-3.566V132.8z"/>
		<path fill="#00BBE3" d="M299.352,138.41c7.285,0,11.061,5.607,11.061,12.16c0,0.63-0.105,1.782-0.105,1.782h-20.234
			c0.105,6.658,4.771,10.484,10.222,10.484c4.821,0,7.917-3.249,7.917-3.249l1.729,2.674c0,0-3.827,3.772-9.802,3.772
			c-7.812,0-13.788-5.661-13.788-13.786C286.351,143.6,292.275,138.41,299.352,138.41z M306.742,149.522
			c-0.21-5.451-3.564-8.125-7.444-8.125c-4.35,0-8.177,2.831-9.068,8.125H306.742z"/>
		<path fill="#00BBE3" d="M330.8,158.958c0,0,2.934,3.982,8.125,3.982c2.935,0,5.557-1.413,5.557-4.192
			c0-5.766-14.783-4.717-14.783-13.209c0-4.771,4.089-7.129,9.383-7.129c2.674,0,8.021,1.048,8.021,4.77v2.254h-3.356v-1.259
			c0-1.939-2.829-2.673-4.559-2.673c-3.668,0-5.872,1.26-5.872,3.827c0,5.923,14.783,4.562,14.783,13.314
			c0,4.403-3.983,7.391-9.224,7.391c-6.868,0-10.119-4.612-10.119-4.612L330.8,158.958z"/>
		<path fill="#00BBE3" d="M356.325,173.217c2.306,0,3.879-1.889,4.875-4.301l1.572-3.616l-9.278-21.963
			c-0.42-0.942-0.892-1.205-1.836-1.205h-0.522v-3.092h1.625c2.359,0,3.093,0.523,4.035,2.882l6.762,16.459
			c0.524,1.312,0.944,2.83,0.944,2.83h0.104c0,0,0.369-1.519,0.891-2.83l6.501-16.459c0.891-2.358,1.675-2.882,4.089-2.882h1.625
			v3.092h-0.524c-0.943,0-1.468,0.263-1.834,1.205l-11.375,27.571c-1.364,3.356-4.036,5.506-7.549,5.506
			c-3.668,0-5.715-2.567-5.715-2.567l1.678-2.622C352.393,171.277,354.071,173.217,356.325,173.217z"/>
		<path fill="#00BBE3" d="M382.113,158.958c0,0,2.934,3.982,8.125,3.982c2.935,0,5.557-1.413,5.557-4.192
			c0-5.766-14.783-4.717-14.783-13.209c0-4.771,4.089-7.129,9.383-7.129c2.674,0,8.02,1.048,8.02,4.77v2.254h-3.355v-1.259
			c0-1.939-2.829-2.673-4.559-2.673c-3.669,0-5.872,1.26-5.872,3.827c0,5.923,14.782,4.562,14.782,13.314
			c0,4.403-3.983,7.391-9.226,7.391c-6.866,0-10.117-4.612-10.117-4.612L382.113,158.958z"/>
		<path fill="#00BBE3" d="M406.485,142.027h-3.46v-2.987h3.513v-7.288h3.511v7.288h6.604v2.987h-6.604v13.419
			c0,6.185,3.932,6.971,5.922,6.971c0.735,0,1.207-0.104,1.207-0.104v3.199c0,0-0.63,0.104-1.521,0.104
			c-3.039,0-9.171-0.997-9.171-9.803V142.027z"/>
		<path fill="#00BBE3" d="M433.741,138.41c7.287,0,11.061,5.607,11.061,12.16c0,0.63-0.104,1.782-0.104,1.782h-20.234
			c0.105,6.658,4.771,10.484,10.221,10.484c4.822,0,7.914-3.249,7.914-3.249l1.732,2.674c0,0-3.828,3.772-9.805,3.772
			c-7.811,0-13.785-5.661-13.785-13.786C420.741,143.6,426.665,138.41,433.741,138.41z M441.131,149.522
			c-0.211-5.451-3.564-8.125-7.443-8.125c-4.351,0-8.178,2.831-9.069,8.125H441.131z"/>
		<path fill="#00BBE3" d="M451.93,143.284c0-0.732-0.424-1.152-1.156-1.152h-2.201v-3.092h3.67c2.201,0,3.197,0.942,3.197,2.933
			v1.207c0,1.049-0.104,1.889-0.104,1.889h0.104c1.311-3.566,5.451-6.658,9.539-6.658c4.877,0,7.393,2.253,8.18,6.604h0.104
			c1.416-3.564,5.242-6.604,9.699-6.604c6.395,0,8.752,3.722,8.752,10.221v12.529c0,0.785,0.42,1.152,1.154,1.152h2.201v3.094
			h-3.723c-2.254,0-3.197-0.942-3.197-3.198v-12.686c0-4.298-0.891-7.863-5.713-7.863c-3.982,0-7.287,3.565-8.334,7.444
			c-0.367,1.154-0.473,2.411-0.473,3.826v12.477h-3.564v-15.884c0-3.983-0.576-7.863-5.557-7.863c-4.299,0-7.494,3.723-8.598,7.759
			c-0.312,1.1-0.418,2.307-0.418,3.512v12.477h-3.562V143.284z"/>
		<path fill="#00BBE3" d="M515.297,142.027h-3.461v-2.987h3.516v-7.288h3.512v7.288h6.604v2.987h-6.604v13.419
			c0,6.185,3.93,6.971,5.922,6.971c0.734,0,1.205-0.104,1.205-0.104v3.199c0,0-0.627,0.104-1.52,0.104
			c-3.039,0-9.174-0.997-9.174-9.803V142.027z"/>
		<path fill="#00BBE3" d="M532.018,132.8c0-0.733-0.42-1.152-1.154-1.152h-2.201v-3.094h3.721c2.256,0,3.199,0.944,3.199,3.094
			v11.164c0,1.206-0.105,2.15-0.105,2.15h0.105c0.996-2.517,4.508-6.552,10.432-6.552c6.553,0,8.857,3.722,8.857,10.221v12.529
			c0,0.785,0.422,1.152,1.156,1.152h2.199v3.094h-3.723c-2.254,0-3.195-0.942-3.195-3.198v-12.633c0-4.142-0.629-7.811-5.768-7.811
			c-4.455,0-8.334,3.092-9.539,7.496c-0.316,1.048-0.42,2.254-0.42,3.512v12.634h-3.564V132.8z"/>
		<path fill="#00BBE3" d="M574.42,138.41c7.289,0,11.062,5.607,11.062,12.16c0,0.63-0.104,1.782-0.104,1.782h-20.234
			c0.105,6.658,4.77,10.484,10.223,10.484c4.82,0,7.912-3.249,7.912-3.249l1.732,2.674c0,0-3.828,3.772-9.805,3.772
			c-7.809,0-13.785-5.661-13.785-13.786C561.422,143.6,567.346,138.41,574.42,138.41z M581.815,149.522
			c-0.213-5.451-3.566-8.125-7.445-8.125c-4.35,0-8.178,2.831-9.068,8.125H581.815z"/>
		<path fill="#00BBE3" d="M617.403,138.41c7.285,0,11.061,5.607,11.061,12.16c0,0.63-0.105,1.782-0.105,1.782h-20.234
			c0.107,6.658,4.771,10.484,10.223,10.484c4.822,0,7.914-3.249,7.914-3.249l1.732,2.674c0,0-3.828,3.772-9.803,3.772
			c-7.812,0-13.789-5.661-13.789-13.786C604.401,143.6,610.325,138.41,617.403,138.41z M624.793,149.522
			c-0.209-5.451-3.566-8.125-7.443-8.125c-4.352,0-8.178,2.831-9.07,8.125H624.793z"/>
		<path fill="#00BBE3" d="M641.198,151.672l-5.715-8.44c-0.627-0.89-1.361-1.1-2.41-1.1h-1.102v-3.092h1.941
			c2.674,0,3.355,0.418,4.928,2.882l3.773,5.871c0.418,0.681,0.893,1.572,0.893,1.572h0.104c0,0,0.473-0.892,0.838-1.572
			l3.826-5.871c1.574-2.411,2.203-2.882,4.928-2.882h1.889v3.092h-1.049c-1.102,0-1.887,0.155-2.463,1.048l-5.715,8.492
			l9.227,13.734h-4.195l-6.447-9.802c-0.418-0.683-0.838-1.468-0.838-1.468h-0.104c0,0-0.42,0.732-0.893,1.468l-6.447,9.802h-4.143
			L641.198,151.672z"/>
		<path fill="#00BBE3" d="M660.592,143.284c0-0.732-0.42-1.152-1.154-1.152h-2.201v-3.092h3.615c2.256,0,3.145,0.942,3.145,2.777
			c0,1.048-0.051,1.782-0.051,1.782h0.104c0,0,2.1-5.189,9.07-5.189c7.076,0,11.479,5.661,11.479,13.838
			c0,8.335-4.979,13.786-11.795,13.786c-6.445,0-8.646-4.979-8.646-4.979h-0.107c0,0,0.107,0.943,0.107,2.308v12.527h-3.564V143.284
			z M672.438,162.89c4.666,0,8.492-3.932,8.492-10.642c0-6.447-3.408-10.589-8.336-10.589c-4.402,0-8.545,3.146-8.545,10.643
			C664.049,157.596,666.934,162.89,672.438,162.89z"/>
		<path fill="#00BBE3" d="M701.895,138.41c7.285,0,11.061,5.607,11.061,12.16c0,0.63-0.105,1.782-0.105,1.782h-20.234
			c0.105,6.658,4.771,10.484,10.223,10.484c4.822,0,7.916-3.249,7.916-3.249l1.73,2.674c0,0-3.828,3.772-9.805,3.772
			c-7.809,0-13.785-5.661-13.785-13.786C688.895,143.6,694.817,138.41,701.895,138.41z M709.286,149.522
			c-0.209-5.451-3.566-8.125-7.443-8.125c-4.352,0-8.178,2.831-9.068,8.125H709.286z"/>
		<path fill="#00BBE3" d="M720.081,143.284c0-0.732-0.418-1.152-1.154-1.152h-2.199v-3.092h3.67c2.201,0,3.197,0.89,3.197,2.987
			v1.781c0,1.101-0.105,1.992-0.105,1.992h0.105c1.258-3.983,4.193-7.025,8.334-7.025c0.734,0,1.416,0.158,1.416,0.158v3.512
			c0,0-0.629-0.104-1.311-0.104c-3.723,0-6.5,2.935-7.654,6.814c-0.523,1.679-0.734,3.459-0.734,5.136v11.114h-3.564V143.284z"/>
		<path fill="#00BBE3" d="M739.372,142.027h-3.461v-2.987h3.514v-7.288h3.512v7.288h6.604v2.987h-6.604v13.419
			c0,6.185,3.932,6.971,5.924,6.971c0.732,0,1.205-0.104,1.205-0.104v3.199c0,0-0.629,0.104-1.521,0.104
			c-3.039,0-9.172-0.997-9.172-9.803V142.027z"/>
		<path fill="#00BBE3" d="M755.62,158.958c0,0,2.932,3.982,8.125,3.982c2.936,0,5.555-1.413,5.555-4.192
			c0-5.766-14.781-4.717-14.781-13.209c0-4.771,4.088-7.129,9.383-7.129c2.674,0,8.02,1.048,8.02,4.77v2.254h-3.354v-1.259
			c0-1.939-2.832-2.673-4.562-2.673c-3.668,0-5.869,1.26-5.869,3.827c0,5.923,14.783,4.562,14.783,13.314
			c0,4.403-3.986,7.391-9.227,7.391c-6.867,0-10.117-4.612-10.117-4.612L755.62,158.958z"/>
		<path fill="#00BBE3" d="M794.249,142.027h-3.461v-2.987h3.514v-7.288h3.51v7.288h6.607v2.987h-6.607v13.419
			c0,6.185,3.932,6.971,5.924,6.971c0.734,0,1.205-0.104,1.205-0.104v3.199c0,0-0.629,0.104-1.521,0.104
			c-3.039,0-9.17-0.997-9.17-9.803V142.027z"/>
		<path fill="#00BBE3" d="M811.385,143.284c0-0.732-0.418-1.152-1.154-1.152h-2.201v-3.092h3.723c2.256,0,3.197,0.942,3.197,3.092
			v12.737c0,4.142,0.684,7.811,5.768,7.811c5.975,0,9.697-5.294,9.697-11.008V139.04h3.564v22.12c0,0.785,0.42,1.152,1.154,1.152
			h2.201v3.094h-3.617c-2.203,0-3.197-0.942-3.197-2.937v-1.204c0-1.05,0.105-1.888,0.105-1.888h-0.105
			c-1.051,2.567-4.51,6.656-10.275,6.656c-6.236,0-8.859-3.354-8.859-10.221V143.284z"/>
		<path fill="#00BBE3" d="M843.096,143.284c0-0.732-0.42-1.152-1.152-1.152h-2.201v-3.092h3.668c2.203,0,3.197,0.89,3.197,2.987
			v1.781c0,1.101-0.104,1.992-0.104,1.992h0.104c1.26-3.983,4.195-7.025,8.336-7.025c0.734,0,1.414,0.158,1.414,0.158v3.512
			c0,0-0.629-0.104-1.309-0.104c-3.723,0-6.5,2.935-7.656,6.814c-0.521,1.679-0.732,3.459-0.732,5.136v11.114h-3.564V143.284z"/>
		<path fill="#00BBE3" d="M862.44,143.284c0-0.732-0.422-1.152-1.156-1.152h-2.199v-3.092h3.67c2.199,0,3.195,0.942,3.195,2.933
			v1.207c0,1.049-0.104,1.889-0.104,1.889h0.104c0.943-2.413,4.299-6.658,10.484-6.658c6.553,0,8.859,3.722,8.859,10.221v12.529
			c0,0.785,0.418,1.152,1.152,1.152h2.203v3.094h-3.723c-2.254,0-3.197-0.942-3.197-3.198v-12.633c0-4.142-0.631-7.811-5.715-7.811
			c-4.508,0-8.387,3.092-9.594,7.443c-0.314,1.101-0.418,2.307-0.418,3.564v12.634h-3.562V143.284z"/>
		<path fill="#00BBE3" d="M908.877,142.027h-3.461v-2.987h3.514v-7.288h3.51v7.288h6.607v2.987h-6.607v13.419
			c0,6.185,3.932,6.971,5.926,6.971c0.732,0,1.205-0.104,1.205-0.104v3.199c0,0-0.629,0.104-1.521,0.104
			c-3.041,0-9.172-0.997-9.172-9.803V142.027z"/>
		<path fill="#00BBE3" d="M937.026,138.41c7.705,0,13.943,5.871,13.943,13.682c0,7.966-6.238,13.942-13.891,13.942
			c-7.705,0-13.945-5.977-13.945-13.942C923.133,144.281,929.374,138.41,937.026,138.41z M937.079,162.837
			c5.611,0,10.221-4.613,10.221-10.745c0-5.976-4.609-10.433-10.221-10.433c-5.662,0-10.275,4.457-10.275,10.433
			C926.803,158.224,931.417,162.837,937.079,162.837z"/>
		<path fill="#00BBE3" d="M958.881,161.37h4.037v4.036h-4.037V161.37z M958.987,128.554h3.668l-0.156,27.206h-3.354L958.987,128.554
			z"/>
	</g>
</g>
</svg>
