<?xml version="1.0" encoding="utf-8"?>
<!-- Generator: Adobe Illustrator 16.0.0, SVG Export Plug-In . SVG Version: 6.00 Build 0)  -->
<!DOCTYPE svg PUBLIC "-//W3C//DTD SVG 1.1//EN" "http://www.w3.org/Graphics/SVG/1.1/DTD/svg11.dtd">
<svg version="1.1" id="Layer_1" xmlns="http://www.w3.org/2000/svg" xmlns:xlink="http://www.w3.org/1999/xlink" x="0px" y="0px" viewBox="0 0 762 122" enable-background="new 0 0 762 122" xml:space="preserve">
<g>
	<path fill="#091F21" d="M154.984,30.912h-27.638v63.202h7.725V69.708h20.543c16.999,0,17.194-18.043,17.194-18.811
		C172.808,41.678,168.14,30.912,154.984,30.912z M135.071,38.276h17.662c11.123,0,11.988,9.728,11.988,12.708
		c0,2.643-0.753,11.269-10.456,11.269h-19.194V38.276z"/>
	<path fill="#091F21" d="M197.022,46.853c-5.026,0.104-8.914,1.772-11.782,5.078v-3.908h-7.273v46.091h7.816v-28.27
		c0-8.24,5.356-11.175,10.364-11.175h3.685v-7.816H197.022z"/>
	<path fill="#091F21" d="M221.1,46.853c-12.266,0-21.518,10.411-21.518,24.216c0,14.258,9.257,24.216,22.51,24.216
		c6.328,0,12.427-1.16,16.316-3.103l1.06-0.529l-2.658-6.156l-1.124,0.437c-5.59,2.173-9.583,2.173-10.897,2.173l-1.08-0.008
		c-9.144,0-15.428-5.528-16-13.889h34.667l0.136-1.095c0.099-0.765,0.103-1.815,0.103-2.677
		C242.616,56.331,233.966,46.853,221.1,46.853z M221.1,53.949c6.298,0,13.043,3.536,13.653,13.348h-26.94
		C208.414,59.942,214.254,53.949,221.1,53.949z"/>
	<path fill="#091F21" d="M282.457,91.77c-0.2-0.646-0.322-1.214-0.454-1.805c-0.162-0.729-0.328-1.489-0.626-2.43l-0.375-1.196
		l-1.198,0.38c-4.491,1.429-9.265,1.471-9.797,1.471c-10.281,0-15.5-5.76-15.5-17.12c0-11.3,5.219-17.03,15.5-17.03
		c1.643,0,5.883,0.134,9.797,1.381l1.265,0.402l1.672-6.554l-0.983-0.421c-4.197-1.798-10.119-1.993-12.47-1.993
		c-14.103,0-22.864,9.278-22.864,24.216c0,14.992,8.761,24.306,22.864,24.306c4.766,0,9.426-0.778,12.47-2.083l1.037-0.444
		L282.457,91.77z"/>
	<g>
		<rect x="288.12" y="48.023" fill="#091F21" width="7.819" height="46.091"/>
		<rect x="288.12" y="30.912" fill="#091F21" width="7.819" height="10.248"/>
	</g>
	<path fill="#091F21" d="M326.833,69.718l-9.313-3.524c-6.045-2.082-7.263-4.124-7.263-6.743c0-3.394,3.318-5.502,8.66-5.502
		c2.906,0,6.661,1.137,11.146,3.378l1.109,0.555l3.163-6.187l-0.987-0.605c-4.624-2.831-9.833-4.328-15.062-4.328
		c-8.175,0-14.494,4.354-15.745,10.933c-0.742,6.758,1.868,11.149,8.542,14.27c1.526,0.583,3.056,1.149,4.566,1.705
		c3.399,1.255,6.615,2.442,9.328,3.673c1.626,0.731,4.169,2.575,2.957,6.58c-1.344,3.279-5.542,4.447-9.016,4.447
		c-4.702,0-9.085-2.332-13.122-4.853l-1.094-0.685l-3.553,6.147l0.908,0.663c5.123,3.751,11.201,5.733,17.577,5.733
		c9.598,0,16.562-5.979,16.562-14.22C336.196,76.357,332.707,72.086,326.833,69.718z"/>
	<g>
		<rect x="341.807" y="48.023" fill="#091F21" width="7.813" height="46.091"/>
		<rect x="341.807" y="30.912" fill="#091F21" width="7.813" height="10.248"/>
	</g>
	<path fill="#091F21" d="M376.736,46.853c-13.546,0-21.961,9.278-21.961,24.216c0,14.992,8.416,24.306,21.961,24.306
		c13.55,0,21.966-9.313,21.966-24.306C398.702,56.131,390.286,46.853,376.736,46.853z M376.736,88.551
		c-9.783,0-14.235-9.063-14.235-17.482c0-8.376,4.452-17.392,14.235-17.392c9.348,0,14.239,8.749,14.239,17.392
		C390.975,79.756,386.083,88.551,376.736,88.551z"/>
	<path fill="#091F21" d="M424.386,46.853c-3.348,0-9.035,0.81-13.341,5.616v-4.446h-7.184v46.091h7.813V66.836
		c0-12.831,12.881-12.979,13.43-12.979c7.134,0,10.456,4.209,10.456,13.248v27.008h7.819V67.106
		C443.38,53.289,437.346,46.853,424.386,46.853z"/>
	<polygon fill="#FFFFFF" points="493.929,30.912 493.929,81.914 461.369,30.912 452.138,30.912 452.138,94.114 459.863,94.114 
		459.863,42.769 493.327,94.114 501.654,94.114 501.654,30.912 	"/>
	<path fill="#FFFFFF" d="M542.116,48.023v28.719c0,10.79-9.592,11.627-12.529,11.627c-8.177,0-11.356-3.739-11.356-13.338V48.023
		h-7.813v27.008c0,13.628,6.21,20.253,18.988,20.253c0.407,0,8.475-0.061,13.341-4.533v3.363h7.184V48.023H542.116z"/>
	<path fill="#FFFFFF" d="M581.049,87.756l-1.368,0.392c-0.95,0.271-1.951,0.404-3.076,0.404c-6.585,0-6.585-3.622-6.585-8.205
		V54.757h10.628v-6.734H570.02V36.405h-7.727v11.618h-7.473v6.734h7.473v25.857c0,12.776,7.422,14.685,11.85,14.685
		c0.299,0,0.567-0.008,0.749-0.015c0.938,0,3.429,0,6.2-1.286l0.851-0.396L581.049,87.756z"/>
	<path fill="#FFFFFF" d="M606.035,46.853c-5.03,0.104-8.919,1.772-11.787,5.078v-3.908h-7.272v46.091h7.815v-28.27
		c0-8.24,5.355-11.175,10.363-11.175h3.685v-7.816H606.035z"/>
	<g>
		<rect x="612.822" y="48.023" fill="#FFFFFF" width="7.819" height="46.091"/>
		<rect x="612.822" y="30.912" fill="#FFFFFF" width="7.819" height="10.248"/>
	</g>
	<path fill="#FFFFFF" d="M651.745,87.756l-1.364,0.392c-0.947,0.271-1.95,0.404-3.073,0.404c-6.588,0-6.588-3.622-6.588-8.205
		V54.757h10.628v-6.734h-10.628V36.405h-7.727v11.618h-7.47v6.734h7.47v25.857c0,12.776,7.429,14.685,11.851,14.685
		c0.304,0,0.572-0.008,0.754-0.015c0.938,0,3.425,0,6.2-1.286l0.852-0.396L651.745,87.756z"/>
	<g>
		<rect x="657.226" y="48.023" fill="#FFFFFF" width="7.813" height="46.091"/>
		<rect x="657.226" y="30.912" fill="#FFFFFF" width="7.813" height="10.248"/>
	</g>
	<path fill="#FFFFFF" d="M692.156,46.853c-13.544,0-21.964,9.278-21.964,24.216c0,14.992,8.42,24.306,21.964,24.306
		c13.552,0,21.968-9.313,21.968-24.306C714.124,56.131,705.708,46.853,692.156,46.853z M692.156,88.551
		c-9.781,0-14.239-9.063-14.239-17.482c0-8.376,4.458-17.392,14.239-17.392c9.349,0,14.241,8.749,14.241,17.392
		C706.397,79.756,701.504,88.551,692.156,88.551z"/>
	<path fill="#FFFFFF" d="M739.802,46.853c-3.343,0-9.032,0.811-13.337,5.616v-4.446h-7.182v46.091h7.813V66.836
		c0-12.831,12.88-12.979,13.427-12.979c7.135,0,10.459,4.209,10.459,13.248v27.008h7.813V67.106
		C758.796,53.289,752.761,46.853,739.802,46.853z"/>
</g>
<path fill="#091F21" d="M108.996,36.724l-0.015-0.027c0-0.013,0.003-0.023,0.003-0.036c0-3.988-2.188-7.431-5.407-9.298
	l-0.023-0.038L61.363,2.966l-0.102-0.001c-1.583-0.911-3.393-1.471-5.347-1.471c-1.871,0-3.601,0.519-5.136,1.356l-0.125-0.003
	L8.317,27.293l-0.053,0.089c-3.238,1.861-5.444,5.314-5.444,9.317c0,0.018,0.005,0.036,0.005,0.052l-0.007,0.014V85.61l0.007,0.013
	c0.018,3.939,2.167,7.346,5.333,9.214l0.02,0.031l41.557,23.992c1.742,1.207,3.848,1.921,6.126,1.921
	c1.933,0,3.719-0.55,5.288-1.439l0.097,0.002l42.391-24.479l0.02-0.033c3.176-1.876,5.33-5.299,5.33-9.256
	c0-0.043-0.012-0.082-0.012-0.125l0.022-0.039V36.724z"/>
<g>
	<path fill="#FFFFFF" d="M43.697,33.47H19.498v55.337h6.765V67.437h17.985c14.88,0,15.051-15.798,15.051-16.472
		C59.299,42.895,55.216,33.47,43.697,33.47z M26.263,39.917h15.463c9.735,0,10.494,8.518,10.494,11.128
		c0,2.314-0.663,9.864-9.154,9.864H26.263V39.917z"/>
	<g>
		<path fill="#00BBE3" d="M60.488,71.523V88.8h6.448V73.495C66.936,63.757,75.452,63,78.062,63c2.318,0,9.866,0.662,9.866,9.155
			V88.8h6.527V70.971c0-14.881-15.798-15.052-16.472-15.052C69.912,55.919,60.488,60.005,60.488,71.523z"/>
	</g>
</g>
</svg>
