<?xml version="1.0" encoding="utf-8"?>
<!-- Generator: Adobe Illustrator 16.0.0, SVG Export Plug-In . SVG Version: 6.00 Build 0)  -->
<!DOCTYPE svg PUBLIC "-//W3C//DTD SVG 1.1//EN" "http://www.w3.org/Graphics/SVG/1.1/DTD/svg11.dtd">
<svg version="1.1" id="Layer_1" xmlns="http://www.w3.org/2000/svg" xmlns:xlink="http://www.w3.org/1999/xlink" x="0px" y="0px" viewBox="0 0 772.999 108.667" enable-background="new 0 0 772.999 108.667"
	 xml:space="preserve">
<g>
	<path fill="#091F21" d="M165.317,21.88h-27.638v63.202h7.725V60.676h20.543c16.999,0,17.194-18.043,17.194-18.811
		C183.141,32.646,178.473,21.88,165.317,21.88z M145.404,29.244h17.662c11.123,0,11.988,9.728,11.988,12.708
		c0,2.643-0.753,11.269-10.456,11.269h-19.194V29.244z"/>
	<path fill="#091F21" d="M207.355,37.821c-5.026,0.104-8.914,1.772-11.782,5.078v-3.908H188.3v46.091h7.816v-28.27
		c0-8.24,5.356-11.175,10.364-11.175h3.685v-7.816H207.355z"/>
	<path fill="#091F21" d="M231.433,37.821c-12.266,0-21.518,10.411-21.518,24.216c0,14.258,9.257,24.216,22.51,24.216
		c6.328,0,12.427-1.16,16.316-3.103l1.06-0.529l-2.658-6.156l-1.124,0.437c-5.59,2.173-9.583,2.173-10.897,2.173l-1.08-0.008
		c-9.144,0-15.428-5.528-16-13.889h34.667l0.136-1.095c0.099-0.765,0.103-1.815,0.103-2.677
		C252.949,47.298,244.299,37.821,231.433,37.821z M231.433,44.917c6.298,0,13.043,3.536,13.653,13.348h-26.94
		C218.747,50.91,224.587,44.917,231.433,44.917z"/>
	<path fill="#091F21" d="M292.79,82.738c-0.199-0.646-0.322-1.214-0.454-1.805c-0.162-0.729-0.328-1.489-0.626-2.43l-0.375-1.196
		l-1.198,0.38c-4.491,1.429-9.265,1.471-9.798,1.471c-10.281,0-15.5-5.76-15.5-17.12c0-11.3,5.219-17.03,15.5-17.03
		c1.643,0,5.883,0.134,9.798,1.381l1.265,0.402l1.673-6.554l-0.983-0.421c-4.197-1.798-10.119-1.993-12.471-1.993
		c-14.102,0-22.863,9.278-22.863,24.216c0,14.992,8.762,24.306,22.863,24.306c4.766,0,9.427-0.778,12.471-2.083l1.037-0.444
		L292.79,82.738z"/>
	<g>
		<rect x="298.454" y="38.991" fill="#091F21" width="7.818" height="46.091"/>
		<rect x="298.454" y="21.88" fill="#091F21" width="7.818" height="10.248"/>
	</g>
	<path fill="#091F21" d="M337.167,60.686l-9.313-3.524c-6.045-2.082-7.263-4.124-7.263-6.743c0-3.394,3.318-5.502,8.66-5.502
		c2.906,0,6.66,1.137,11.146,3.378l1.109,0.555l3.163-6.187l-0.987-0.605c-4.624-2.831-9.833-4.328-15.062-4.328
		c-8.175,0-14.493,4.354-15.745,10.933c-0.742,6.758,1.867,11.149,8.542,14.27c1.526,0.583,3.056,1.149,4.565,1.705
		c3.4,1.255,6.615,2.442,9.328,3.673c1.627,0.731,4.169,2.575,2.957,6.58c-1.344,3.279-5.541,4.447-9.016,4.447
		c-4.702,0-9.085-2.332-13.121-4.853l-1.094-0.685l-3.554,6.147l0.908,0.663c5.122,3.751,11.2,5.733,17.577,5.733
		c9.598,0,16.562-5.979,16.562-14.22C346.53,67.325,343.04,63.054,337.167,60.686z"/>
	<g>
		<rect x="352.139" y="38.991" fill="#091F21" width="7.814" height="46.091"/>
		<rect x="352.139" y="21.88" fill="#091F21" width="7.814" height="10.248"/>
	</g>
	<path fill="#091F21" d="M387.069,37.821c-13.546,0-21.961,9.278-21.961,24.216c0,14.992,8.415,24.306,21.961,24.306
		c13.55,0,21.966-9.313,21.966-24.306C409.035,47.099,400.619,37.821,387.069,37.821z M387.069,79.519
		c-9.783,0-14.234-9.063-14.234-17.482c0-8.376,4.451-17.392,14.234-17.392c9.348,0,14.239,8.749,14.239,17.392
		C401.308,70.724,396.417,79.519,387.069,79.519z"/>
	<path fill="#091F21" d="M434.719,37.821c-3.348,0-9.035,0.81-13.341,5.616v-4.446h-7.184v46.091h7.813V57.804
		c0-12.831,12.881-12.979,13.43-12.979c7.134,0,10.456,4.209,10.456,13.248v27.008h7.819V58.074
		C453.713,44.256,447.679,37.821,434.719,37.821z"/>
	<polygon fill="#FFFFFF" points="504.262,21.88 504.262,72.881 471.702,21.88 462.471,21.88 462.471,85.082 470.196,85.082 
		470.196,33.736 503.66,85.082 511.987,85.082 511.987,21.88 	"/>
	<path fill="#FFFFFF" d="M552.449,38.991V67.71c0,10.79-9.592,11.627-12.529,11.627c-8.177,0-11.356-3.739-11.356-13.338V38.991
		h-7.813V66c0,13.628,6.21,20.253,18.988,20.253c0.407,0,8.475-0.061,13.341-4.533v3.363h7.184V38.991H552.449z"/>
	<path fill="#FFFFFF" d="M591.382,78.724l-1.368,0.392c-0.95,0.271-1.951,0.404-3.076,0.404c-6.585,0-6.585-3.622-6.585-8.205
		V45.725h10.628v-6.734h-10.628V27.373h-7.727v11.618h-7.473v6.734h7.473v25.857c0,12.776,7.422,14.685,11.85,14.685
		c0.299,0,0.567-0.008,0.749-0.015c0.938,0,3.429,0,6.2-1.286l0.851-0.396L591.382,78.724z"/>
	<path fill="#FFFFFF" d="M616.368,37.821c-5.03,0.104-8.919,1.772-11.787,5.078v-3.908h-7.272v46.091h7.815v-28.27
		c0-8.24,5.355-11.175,10.363-11.175h3.685v-7.816H616.368z"/>
	<g>
		<rect x="623.155" y="38.991" fill="#FFFFFF" width="7.819" height="46.091"/>
		<rect x="623.155" y="21.88" fill="#FFFFFF" width="7.819" height="10.248"/>
	</g>
	<path fill="#FFFFFF" d="M662.078,78.724l-1.364,0.392c-0.947,0.271-1.95,0.404-3.073,0.404c-6.588,0-6.588-3.622-6.588-8.205
		V45.725h10.628v-6.734h-10.628V27.373h-7.727v11.618h-7.47v6.734h7.47v25.857c0,12.776,7.429,14.685,11.851,14.685
		c0.304,0,0.572-0.008,0.754-0.015c0.938,0,3.425,0,6.2-1.286l0.852-0.396L662.078,78.724z"/>
	<g>
		<rect x="667.559" y="38.991" fill="#FFFFFF" width="7.813" height="46.091"/>
		<rect x="667.559" y="21.88" fill="#FFFFFF" width="7.813" height="10.248"/>
	</g>
	<path fill="#FFFFFF" d="M702.489,37.821c-13.544,0-21.964,9.278-21.964,24.216c0,14.992,8.42,24.306,21.964,24.306
		c13.552,0,21.968-9.313,21.968-24.306C724.457,47.099,716.041,37.821,702.489,37.821z M702.489,79.519
		c-9.781,0-14.239-9.063-14.239-17.482c0-8.376,4.458-17.392,14.239-17.392c9.349,0,14.241,8.749,14.241,17.392
		C716.73,70.724,711.837,79.519,702.489,79.519z"/>
	<path fill="#FFFFFF" d="M750.135,37.821c-3.343,0-9.032,0.811-13.337,5.616v-4.446h-7.182v46.091h7.813V57.804
		c0-12.831,12.88-12.979,13.427-12.979c7.135,0,10.459,4.209,10.459,13.248v27.008h7.813V58.074
		C769.129,44.256,763.094,37.821,750.135,37.821z"/>
</g>
<g>
	<path fill="#091F21" d="M37.889,1.022l-0.026,0.016c-0.013,0-0.023-0.004-0.036-0.004c-3.988,0-7.431,2.188-9.298,5.407
		l-0.037,0.022L4.131,48.655L4.13,48.756c-0.911,1.583-1.471,3.393-1.471,5.347c0,1.87,0.52,3.601,1.356,5.136l-0.003,0.125
		l24.445,42.337l0.089,0.053c1.861,3.238,5.313,5.444,9.317,5.444c0.018,0,0.035-0.005,0.052-0.005l0.015,0.007h48.844l0.013-0.007
		c3.939-0.019,7.346-2.167,9.215-5.333l0.031-0.02l23.992-41.557c1.207-1.742,1.921-3.848,1.921-6.127
		c0-1.932-0.55-3.719-1.439-5.287l0.002-0.097L96.03,6.381l-0.033-0.02c-1.877-3.176-5.299-5.33-9.256-5.33
		c-0.044,0-0.082,0.012-0.125,0.012l-0.039-0.021H37.889z"/>
	<g>
		<path fill="#FFFFFF" d="M50.093,26.443H25.894V81.78h6.766V60.41h17.985c14.88,0,15.051-15.798,15.051-16.472
			C65.695,35.868,61.612,26.443,50.093,26.443z M32.659,32.89h15.463c9.734,0,10.494,8.518,10.494,11.128
			c0,2.314-0.662,9.864-9.154,9.864H32.659V32.89z"/>
		<g>
			<path fill="#00BBE3" d="M66.884,64.496v17.277h6.448V66.468c0-9.738,8.517-10.495,11.126-10.495c2.317,0,9.865,0.662,9.865,9.155
				v16.645h6.527V63.944c0-14.881-15.798-15.052-16.472-15.052C76.308,48.892,66.884,52.979,66.884,64.496z"/>
		</g>
	</g>
</g>
</svg>
